<svg width="1440" height="479" viewBox="0 0 1440 479" fill="none" xmlns="http://www.w3.org/2000/svg">
<rect width="1440" height="479" fill="#FFFEF9"/>
<path d="M1247.81 343.171C1246.16 340.87 1244.55 338.569 1242.86 336.319C1243.09 335.865 1243.3 335.411 1243.51 334.936C1243.95 333.886 1244.28 332.826 1244.51 331.77C1250.23 326.293 1253.85 327.825 1253.85 327.825L1255.78 323.193C1229.1 294.848 1201.57 300.545 1201.57 300.545C1194.28 291.766 1182.25 292.475 1182.25 292.475C1179.14 288.943 1175.92 285.974 1172.69 283.472C1169.77 280.711 1166.3 278.445 1162.64 276.915C1162.12 276.694 1161.59 276.502 1161.06 276.31C1144.49 268.467 1130.18 270.735 1130.18 270.735L1127.45 277.293C1130.13 278.188 1130.8 280.455 1130.76 282.622C1129.8 283.876 1128.98 285.266 1128.33 286.819C1127.96 287.697 1127.67 288.585 1127.45 289.485C1125.48 289.787 1123.51 290.103 1121.53 290.42L1112.68 291.954L1115.48 300.473C1116.68 299.861 1118.03 299.265 1119.34 298.719C1120.65 298.152 1121.98 297.627 1123.32 297.13C1124.53 296.659 1125.75 296.238 1126.98 295.822C1127.86 305.851 1135.94 315.696 1145.46 319.67C1159.07 325.354 1174.76 320.147 1179.71 308.295C1180.56 306.26 1181.02 304.205 1181.14 302.162L1189.37 305.52L1195.46 308.124C1194.09 309.648 1192.94 311.419 1192.09 313.461C1186.85 325.981 1196.82 341.132 1209.23 346.311C1220.07 350.835 1232.22 348.452 1239.23 341.313C1240.11 343.062 1240.98 344.819 1241.76 346.608C1242.35 347.915 1242.91 349.224 1243.44 350.556C1243.97 351.866 1244.48 353.24 1244.9 354.533L1252.92 350.539L1247.79 343.164L1247.81 343.171ZM1226.95 318.948C1225.9 318.202 1224.76 317.517 1223.47 317.029L1215.37 313.808C1210.37 311.806 1205.36 309.847 1200.36 307.809C1206.97 303.084 1217.13 302.963 1225.26 306.36C1233.27 309.705 1240.23 316.861 1241.66 324.76C1236.74 322.861 1231.84 320.926 1226.96 318.962L1226.95 318.948ZM1241.93 327.934C1241.89 329.811 1241.53 331.7 1240.78 333.576C1239.58 332.022 1238.37 330.49 1237.12 328.975C1235.62 327.164 1234.06 325.391 1232.39 323.686C1235.58 325.085 1238.76 326.499 1241.92 327.927L1241.93 327.934ZM1198.09 305.723C1197.77 305.969 1197.45 306.229 1197.15 306.495L1190.17 303.649L1181.17 299.797C1181.17 299.797 1181.17 299.791 1181.16 299.784C1181.13 299.36 1181.08 298.938 1181.03 298.515C1188.09 296.461 1194.89 300.313 1198.11 305.723L1198.09 305.723ZM1131.12 287.986C1131.92 286.073 1133.03 284.439 1134.37 283.064C1138.34 284.575 1142.28 286.115 1146.23 287.684C1143.85 287.69 1141.49 287.83 1139.14 288.033C1136.32 288.282 1133.53 288.595 1130.74 289.013C1130.85 288.669 1130.98 288.324 1131.13 287.986L1131.12 287.986ZM1165.22 292.844L1157.24 289.35C1155.98 288.782 1154.7 288.456 1153.42 288.229C1147.91 285.843 1142.41 283.407 1136.93 280.921C1143.55 276.436 1153.49 276.366 1161.48 279.705C1169.6 283.095 1176.63 290.383 1177.94 298.4C1173.7 296.567 1169.47 294.691 1165.23 292.851L1165.22 292.844ZM1146.64 316.879C1137.81 313.19 1130.31 303.981 1129.93 294.875C1130.43 294.714 1130.94 294.546 1131.45 294.392C1136.93 292.837 1142.54 291.519 1148.11 291.256C1149.5 291.195 1150.88 291.192 1152.23 291.324C1153.58 291.45 1154.9 291.682 1156.05 292.148L1164.12 295.341C1168.81 297.214 1173.49 299.059 1178.16 300.946C1178.17 302.998 1177.79 305.071 1176.93 307.114C1172.69 317.275 1158.53 321.83 1146.64 316.865L1146.64 316.879ZM1210.41 343.52C1199.32 338.892 1190.33 325.551 1194.89 314.628C1195.75 312.571 1196.96 310.833 1198.44 309.397C1203.77 311.662 1209.06 314.028 1214.37 316.344L1222.32 319.833C1223.46 320.327 1224.55 321.113 1225.58 321.972C1226.63 322.831 1227.59 323.82 1228.53 324.852C1232.15 328.875 1235.07 333.61 1237.75 338.433C1231.72 345.202 1220.28 347.649 1210.41 343.52Z" fill="#EB7267" fill-opacity="0.5"/>
<path d="M1198.06 297.191C1190.78 288.412 1178.74 289.121 1178.74 289.121C1155.56 262.772 1126.68 267.367 1126.68 267.367L1123.94 273.925C1129.7 275.835 1126.21 284.042 1126.21 284.042C1130.94 272.73 1146.2 269.789 1158.56 274.949C1167.8 278.812 1174.98 287.036 1176.01 295.679C1184.2 292.323 1192.32 297.255 1195.33 303.749C1202.19 298.413 1213.08 297.727 1222.34 301.597C1234.69 306.756 1243.32 319.687 1238.6 330.999C1245.69 322.505 1250.33 324.478 1250.33 324.478L1252.27 319.847C1225.59 291.502 1198.06 297.198 1198.06 297.198L1198.06 297.191Z" fill="#654659"/>
<path d="M1109.18 288.586L1118.03 287.051C1120.95 286.585 1123.87 286.085 1126.8 285.703C1129.72 285.259 1132.66 284.934 1135.62 284.672C1138.57 284.41 1141.55 284.254 1144.57 284.336C1146.08 284.371 1147.6 284.482 1149.13 284.728C1150.66 284.96 1152.21 285.304 1153.73 285.988L1161.71 289.483C1167.02 291.799 1172.31 294.165 1177.64 296.43L1193.63 303.262C1198.98 305.491 1204.31 307.771 1209.68 309.964C1220.4 314.387 1231.14 318.724 1241.99 322.851L1240.83 325.648C1230.26 320.838 1219.61 316.236 1208.94 311.719C1203.6 309.447 1198.23 307.254 1192.89 305.017L1176.77 298.445C1171.41 296.244 1165.99 294.145 1160.61 291.98L1152.54 288.787C1151.38 288.328 1150.06 288.096 1148.72 287.963C1147.38 287.824 1145.99 287.834 1144.6 287.895C1139.02 288.151 1133.42 289.476 1127.94 291.03C1125.22 291.871 1122.49 292.74 1119.82 293.769C1118.48 294.273 1117.15 294.798 1115.84 295.358C1114.53 295.903 1113.19 296.506 1111.98 297.112L1109.18 288.593L1109.18 288.586Z" fill="#654659"/>
<path d="M1241.41 351.171C1240.99 349.885 1240.48 348.51 1239.94 347.194C1239.41 345.862 1238.85 344.553 1238.27 343.245C1237.13 340.621 1235.82 338.074 1234.5 335.542C1231.75 330.559 1228.75 325.643 1225.02 321.491C1224.08 320.458 1223.12 319.469 1222.07 318.61C1221.04 317.744 1219.94 316.973 1218.81 316.471L1210.86 312.982C1205.54 310.667 1200.25 308.301 1194.91 306.029L1178.91 299.183C1173.56 296.954 1168.23 294.674 1162.86 292.481C1152.14 288.058 1141.38 283.715 1130.53 279.58L1131.71 276.797C1142.26 281.608 1152.9 286.203 1163.58 290.72C1168.91 292.992 1174.27 295.186 1179.63 297.422L1195.72 303.988C1201.08 306.189 1206.49 308.289 1211.87 310.439L1219.97 313.66C1221.53 314.258 1222.85 315.12 1224.09 316.035C1225.34 316.957 1226.49 317.953 1227.57 319.001C1229.75 321.09 1231.74 323.321 1233.63 325.605C1235.52 327.889 1237.36 330.217 1239.1 332.606C1240.89 334.965 1242.58 337.384 1244.31 339.802L1249.44 347.176L1241.42 351.17L1241.41 351.171Z" fill="#654659"/>
<path opacity="0.5" d="M1238.6 330.985C1233.87 342.297 1218.68 346.707 1206.32 341.547C1193.97 336.388 1185.27 321.988 1189.99 310.676C1194.72 299.364 1209.98 296.423 1222.33 301.583C1234.69 306.743 1243.32 319.673 1238.6 330.985Z" fill="#E1A6AB"/>
<path opacity="0.5" d="M1174.82 304.344C1170.1 315.656 1154.91 320.066 1142.55 314.907C1130.2 309.747 1121.49 295.348 1126.22 284.036C1130.94 272.724 1146.21 269.783 1158.56 274.942C1170.92 280.102 1179.55 293.032 1174.82 304.344Z" fill="#E1A6AB"/>
<path d="M1205.74 342.943C1193.33 337.764 1183.36 322.613 1188.6 310.093C1193.92 297.343 1210.56 295.022 1222.92 300.188C1235.28 305.355 1245.32 318.812 1240 331.562C1235.05 343.413 1219.36 348.62 1205.75 342.936L1205.74 342.943ZM1221.75 302.979C1210.73 298.377 1195.99 300.236 1191.39 311.26C1186.82 322.177 1195.82 335.525 1206.91 340.153C1218.8 345.118 1232.96 340.563 1237.2 330.402C1241.81 319.378 1232.77 307.581 1221.75 302.979Z" fill="#654659"/>
<path d="M1141.96 316.308C1129.56 311.129 1119.59 295.979 1124.82 283.458C1130.14 270.708 1146.78 268.387 1159.14 273.554C1171.5 278.72 1181.54 292.177 1176.21 304.934C1171.26 316.785 1155.58 321.999 1141.96 316.308ZM1157.97 276.344C1146.96 271.742 1132.22 273.601 1127.61 284.625C1123.04 295.542 1132.04 308.89 1143.13 313.518C1155.02 318.483 1169.18 313.928 1173.42 303.767C1178.03 292.743 1168.99 280.946 1157.97 276.344Z" fill="#654659"/>
<path opacity="0.53" d="M1153.71 276.403L1148.63 277.877L1158.37 311.442L1163.45 309.968L1153.71 276.403Z" fill="white"/>
<path opacity="0.53" d="M1143.48 278.223L1140.58 279.064L1150.32 312.63L1153.22 311.788L1143.48 278.223Z" fill="white"/>
<path d="M1295.08 186.99C1293.32 184.52 1289.88 183.94 1287.41 185.7L1273.4 195.67C1264.83 184.33 1251.23 177 1235.92 177C1209.98 177 1188.96 198.03 1188.96 223.96C1188.96 249.89 1209.99 270.92 1235.92 270.92C1261.85 270.92 1282.88 249.89 1282.88 223.96C1282.88 217.26 1281.47 210.9 1278.94 205.14C1279.18 205.02 1279.41 204.88 1279.63 204.73L1293.78 194.66C1296.25 192.9 1296.83 189.46 1295.07 186.99H1295.08Z" fill="#EB7267" fill-opacity="0.5"/>
<path d="M1288.08 186.99C1286.32 184.52 1282.88 183.94 1280.41 185.7L1266.4 195.67C1257.83 184.33 1244.23 177 1228.92 177C1202.98 177 1181.96 198.03 1181.96 223.96C1181.96 249.89 1202.99 270.92 1228.92 270.92C1254.85 270.92 1275.88 249.89 1275.88 223.96C1275.88 217.26 1274.47 210.9 1271.94 205.14C1272.18 205.02 1272.41 204.88 1272.63 204.73L1286.78 194.66C1289.25 192.9 1289.83 189.46 1288.07 186.99H1288.08Z" fill="#F6E4E6"/>
<path d="M1228.92 260.93C1208.54 260.93 1191.96 244.35 1191.96 223.97C1191.96 203.59 1208.54 187.01 1228.92 187.01C1249.3 187.01 1265.88 203.59 1265.88 223.97C1265.88 244.35 1249.3 260.93 1228.92 260.93Z" fill="#785C6C"/>
<path d="M1212.31 221.63C1212.31 206.29 1221.71 193.1 1235.05 187.52C1233.05 187.19 1231.01 187 1228.92 187C1208.54 187 1191.96 203.58 1191.96 223.96C1191.96 244.34 1208.54 260.92 1228.92 260.92C1233.96 260.92 1238.77 259.9 1243.15 258.07C1225.68 255.14 1212.32 239.92 1212.32 221.62L1212.31 221.63Z" fill="#59384B"/>
<path d="M1242.68 218.301C1247.04 218.301 1250.56 216.138 1250.56 213.471C1250.56 210.803 1247.04 208.641 1242.68 208.641C1238.33 208.641 1234.8 210.803 1234.8 213.471C1234.8 216.138 1238.33 218.301 1242.68 218.301Z" fill="#D3CACF"/>
<path d="M1133.3 231.414L1131.63 238.09" stroke="#EF889F" stroke-miterlimit="10"/>
<path d="M1129.13 233.923L1135.81 235.592" stroke="#EF889F" stroke-miterlimit="10"/>
<path d="M1105.53 266.103C1104.74 258.334 1108.38 250.444 1115.52 246.169C1120.44 243.217 1126.09 242.544 1131.25 243.829" stroke="#EF889F" stroke-miterlimit="10"/>
<path d="M1286.7 283.77C1286.7 285.9 1284.98 287.62 1282.85 287.62C1280.72 287.62 1279 285.9 1279 283.77C1279 281.64 1280.72 279.92 1282.85 279.92C1284.98 279.92 1286.7 281.64 1286.7 283.77Z" stroke="#EF889F" stroke-miterlimit="10"/>
<path d="M352.565 367.97L158.879 259.64C153.606 256.69 151.722 250.021 154.673 244.748L194.431 173.67C197.382 168.398 204.051 166.514 209.323 169.464L403.01 277.794C408.282 280.744 410.166 287.413 407.216 292.686L367.457 363.764C364.507 369.036 357.838 370.92 352.565 367.97Z" fill="#EB7267" fill-opacity="0.5"/>
<path d="M348.579 365.71L154.893 257.38C149.62 254.43 147.736 247.761 150.686 242.488L190.445 171.411C193.395 166.138 200.064 164.254 205.337 167.204L399.023 275.534C404.296 278.484 406.18 285.153 403.23 290.426L363.471 361.504C360.52 366.777 353.852 368.66 348.579 365.71Z" fill="#E1A6AB"/>
<path d="M209.986 192.412L196.992 185.145L193.079 192.141L206.073 199.409L209.986 192.412Z" fill="#CF90A0"/>
<path d="M226.523 201.662L213.529 194.395L209.616 201.391L222.61 208.659L226.523 201.662Z" fill="#CF90A0"/>
<path d="M243.06 210.91L230.066 203.643L226.153 210.639L239.147 217.907L243.06 210.91Z" fill="#CF90A0"/>
<path d="M259.601 220.152L246.606 212.885L242.693 219.882L255.687 227.149L259.601 220.152Z" fill="#CF90A0"/>
<path d="M276.141 229.414L263.146 222.146L259.233 229.143L272.227 236.411L276.141 229.414Z" fill="#CF90A0"/>
<path d="M292.67 238.658L279.676 231.391L275.763 238.387L288.757 245.655L292.67 238.658Z" fill="#CF90A0"/>
<path d="M309.212 247.902L296.218 240.635L292.305 247.632L305.299 254.899L309.212 247.902Z" fill="#CF90A0"/>
<path d="M325.751 257.16L312.757 249.893L308.844 256.889L321.838 264.157L325.751 257.16Z" fill="#CF90A0"/>
<path d="M342.281 266.406L329.287 259.139L325.374 266.135L338.368 273.403L342.281 266.406Z" fill="#CF90A0"/>
<path d="M358.828 275.652L345.834 268.385L341.921 275.382L354.915 282.649L358.828 275.652Z" fill="#CF90A0"/>
<path d="M375.364 284.902L362.37 277.635L358.457 284.632L371.451 291.899L375.364 284.902Z" fill="#CF90A0"/>
<path d="M391.898 294.158L378.904 286.891L374.991 293.887L387.985 301.155L391.898 294.158Z" fill="#CF90A0"/>
<path d="M203.958 203.177L190.964 195.91L184.628 207.238L197.622 214.506L203.958 203.177Z" fill="#CF90A0"/>
<path d="M220.517 212.447L207.522 205.18L201.187 216.508L214.181 223.775L220.517 212.447Z" fill="#CF90A0"/>
<path d="M237.073 221.709L224.079 214.441L217.744 225.77L230.738 233.037L237.073 221.709Z" fill="#CF90A0"/>
<path d="M253.641 230.965L240.646 223.697L234.311 235.025L247.305 242.293L253.641 230.965Z" fill="#CF90A0"/>
<path d="M270.197 240.226L257.203 232.959L250.868 244.287L263.862 251.554L270.197 240.226Z" fill="#CF90A0"/>
<path d="M286.761 249.49L273.767 242.223L267.431 253.551L280.425 260.818L286.761 249.49Z" fill="#CF90A0"/>
<path d="M303.317 258.752L290.323 251.484L283.988 262.813L296.982 270.08L303.317 258.752Z" fill="#CF90A0"/>
<path d="M319.881 268.015L306.887 260.748L300.551 272.076L313.545 279.343L319.881 268.015Z" fill="#CF90A0"/>
<path d="M336.437 277.275L323.443 270.008L317.108 281.336L330.102 288.603L336.437 277.275Z" fill="#CF90A0"/>
<path d="M353.001 286.539L340.007 279.271L333.671 290.6L346.665 297.867L353.001 286.539Z" fill="#CF90A0"/>
<path d="M385.875 304.926L356.002 288.219L349.666 299.547L379.539 316.254L385.875 304.926Z" fill="#CF90A0"/>
<path d="M377.431 320.035L364.437 312.768L358.101 324.096L371.095 331.363L377.431 320.035Z" fill="#CF90A0"/>
<path d="M360.867 310.771L347.873 303.504L341.537 314.832L354.532 322.099L360.867 310.771Z" fill="#CF90A0"/>
<path d="M344.31 301.509L331.316 294.242L324.981 305.57L337.975 312.838L344.31 301.509Z" fill="#CF90A0"/>
<path d="M327.747 292.248L314.753 284.98L308.417 296.309L321.411 303.576L327.747 292.248Z" fill="#CF90A0"/>
<path d="M311.194 282.98L298.2 275.713L291.865 287.041L304.859 294.308L311.194 282.98Z" fill="#CF90A0"/>
<path d="M294.62 273.718L281.626 266.451L275.29 277.779L288.284 285.047L294.62 273.718Z" fill="#CF90A0"/>
<path d="M278.063 264.459L265.069 257.191L258.734 268.52L271.728 275.787L278.063 264.459Z" fill="#CF90A0"/>
<path d="M261.5 255.193L248.506 247.926L242.17 259.254L255.164 266.521L261.5 255.193Z" fill="#CF90A0"/>
<path d="M244.944 245.933L231.95 238.666L225.615 249.994L238.609 257.261L244.944 245.933Z" fill="#CF90A0"/>
<path d="M228.377 236.677L215.383 229.41L209.047 240.738L222.041 248.006L228.377 236.677Z" fill="#CF90A0"/>
<path d="M176.176 222.353L206.049 239.061L212.384 227.732L182.511 211.025L176.176 222.353Z" fill="#CF90A0"/>
<path d="M368.977 335.134L355.982 327.867L349.647 339.195L362.641 346.463L368.977 335.134Z" fill="#CF90A0"/>
<path d="M352.424 325.869L339.43 318.602L333.094 329.93L346.088 337.197L352.424 325.869Z" fill="#CF90A0"/>
<path d="M335.86 316.603L322.866 309.336L316.531 320.664L329.525 327.931L335.86 316.603Z" fill="#CF90A0"/>
<path d="M319.304 307.343L306.31 300.076L299.974 311.404L312.968 318.672L319.304 307.343Z" fill="#CF90A0"/>
<path d="M302.743 298.091L289.749 290.824L283.413 302.152L296.408 309.42L302.743 298.091Z" fill="#CF90A0"/>
<path d="M286.18 288.826L273.186 281.559L266.85 292.887L279.844 300.154L286.18 288.826Z" fill="#CF90A0"/>
<path d="M269.622 279.566L256.628 272.299L250.292 283.627L263.286 290.894L269.622 279.566Z" fill="#CF90A0"/>
<path d="M253.063 270.297L240.069 263.029L233.734 274.357L246.728 281.625L253.063 270.297Z" fill="#CF90A0"/>
<path d="M236.502 261.041L223.508 253.773L217.172 265.102L230.166 272.369L236.502 261.041Z" fill="#CF90A0"/>
<path d="M219.939 251.777L206.945 244.51L200.61 255.838L213.604 263.105L219.939 251.777Z" fill="#CF90A0"/>
<path d="M167.728 237.453L197.602 254.16L203.937 242.832L174.064 226.125L167.728 237.453Z" fill="#CF90A0"/>
<path d="M225.158 289.41L288.196 324.666L294.532 313.338L231.494 278.082L225.158 289.41Z" fill="#CF90A0"/>
<path d="M208.588 280.143L221.582 287.41L227.918 276.082L214.924 268.815L208.588 280.143Z" fill="#CF90A0"/>
<path d="M192.151 270.934L205.146 278.201L211.481 266.873L198.487 259.606L192.151 270.934Z" fill="#CF90A0"/>
<path d="M175.493 261.623L188.487 268.891L194.823 257.562L181.829 250.295L175.493 261.623Z" fill="#CF90A0"/>
<path d="M159.274 252.555L172.269 259.822L178.604 248.494L165.61 241.227L159.274 252.555Z" fill="#CF90A0"/>
<path d="M341.192 354.313L354.187 361.58L360.522 350.252L347.528 342.985L341.192 354.313Z" fill="#CF90A0"/>
<path d="M324.762 345.11L337.756 352.377L344.091 341.049L331.097 333.782L324.762 345.11Z" fill="#CF90A0"/>
<path d="M308.097 335.791L321.091 343.059L327.426 331.73L314.432 324.463L308.097 335.791Z" fill="#CF90A0"/>
<path d="M291.885 326.729L304.879 333.996L311.214 322.668L298.22 315.401L291.885 326.729Z" fill="#CF90A0"/>
<path d="M207.992 191.283L194.998 184.016L191.085 191.012L204.079 198.28L207.992 191.283Z" fill="#F1F2F2"/>
<path d="M224.536 200.535L211.542 193.268L207.629 200.264L220.623 207.532L224.536 200.535Z" fill="#F1F2F2"/>
<path d="M241.061 209.787L228.067 202.52L224.154 209.516L237.148 216.784L241.061 209.787Z" fill="#F1F2F2"/>
<path d="M257.608 219.033L244.614 211.766L240.701 218.762L253.695 226.03L257.608 219.033Z" fill="#F1F2F2"/>
<path d="M274.146 228.283L261.152 221.016L257.239 228.012L270.233 235.28L274.146 228.283Z" fill="#F1F2F2"/>
<path d="M290.683 237.531L277.688 230.264L273.775 237.26L286.769 244.528L290.683 237.531Z" fill="#F1F2F2"/>
<path d="M307.22 246.781L294.226 239.514L290.312 246.51L303.307 253.778L307.22 246.781Z" fill="#F1F2F2"/>
<path d="M323.763 256.035L310.769 248.768L306.855 255.764L319.849 263.032L323.763 256.035Z" fill="#F1F2F2"/>
<path d="M340.293 265.279L327.299 258.012L323.386 265.009L336.38 272.276L340.293 265.279Z" fill="#F1F2F2"/>
<path d="M356.837 274.533L343.843 267.266L339.93 274.262L352.924 281.53L356.837 274.533Z" fill="#F1F2F2"/>
<path d="M373.373 283.781L360.379 276.514L356.466 283.51L369.46 290.778L373.373 283.781Z" fill="#F1F2F2"/>
<path d="M389.907 293.021L376.913 285.754L373 292.751L385.994 300.018L389.907 293.021Z" fill="#F1F2F2"/>
<path d="M201.966 202.058L188.972 194.791L182.636 206.119L195.63 213.386L201.966 202.058Z" fill="#F1F2F2"/>
<path d="M218.529 211.322L205.535 204.055L199.2 215.383L212.194 222.65L218.529 211.322Z" fill="#F1F2F2"/>
<path d="M235.09 220.576L222.096 213.309L215.76 224.637L228.754 231.904L235.09 220.576Z" fill="#F1F2F2"/>
<path d="M251.652 229.84L238.658 222.572L232.323 233.9L245.317 241.168L251.652 229.84Z" fill="#F1F2F2"/>
<path d="M268.209 239.101L255.215 231.834L248.879 243.162L261.873 250.429L268.209 239.101Z" fill="#F1F2F2"/>
<path d="M284.764 248.369L271.77 241.102L265.434 252.43L278.428 259.697L284.764 248.369Z" fill="#F1F2F2"/>
<path d="M301.327 257.633L288.333 250.365L281.997 261.693L294.992 268.961L301.327 257.633Z" fill="#F1F2F2"/>
<path d="M317.887 266.886L304.893 259.619L298.557 270.947L311.551 278.215L317.887 266.886Z" fill="#F1F2F2"/>
<path d="M334.45 276.15L321.456 268.883L315.12 280.211L328.115 287.478L334.45 276.15Z" fill="#F1F2F2"/>
<path d="M351.014 285.414L338.02 278.146L331.684 289.475L344.678 296.742L351.014 285.414Z" fill="#F1F2F2"/>
<path d="M383.888 303.801L354.015 287.094L347.679 298.422L377.552 315.129L383.888 303.801Z" fill="#F1F2F2"/>
<path d="M375.438 318.902L362.444 311.635L356.109 322.963L369.103 330.23L375.438 318.902Z" fill="#F1F2F2"/>
<path d="M358.879 309.646L345.885 302.379L339.549 313.707L352.543 320.974L358.879 309.646Z" fill="#F1F2F2"/>
<path d="M342.315 300.383L329.321 293.115L322.986 304.443L335.98 311.711L342.315 300.383Z" fill="#F1F2F2"/>
<path d="M325.759 291.123L312.765 283.855L306.429 295.184L319.423 302.451L325.759 291.123Z" fill="#F1F2F2"/>
<path d="M309.195 281.859L296.201 274.592L289.866 285.92L302.86 293.187L309.195 281.859Z" fill="#F1F2F2"/>
<path d="M292.635 272.605L279.641 265.338L273.305 276.666L286.299 283.933L292.635 272.605Z" fill="#F1F2F2"/>
<path d="M276.075 263.334L263.081 256.066L256.745 267.395L269.74 274.662L276.075 263.334Z" fill="#F1F2F2"/>
<path d="M259.518 254.074L246.523 246.807L240.188 258.135L253.182 265.402L259.518 254.074Z" fill="#F1F2F2"/>
<path d="M242.948 244.806L229.954 237.539L223.619 248.867L236.613 256.135L242.948 244.806Z" fill="#F1F2F2"/>
<path d="M226.387 235.55L213.393 228.283L207.057 239.611L220.051 246.879L226.387 235.55Z" fill="#F1F2F2"/>
<path d="M174.186 221.222L204.059 237.93L210.394 226.602L180.521 209.894L174.186 221.222Z" fill="#F1F2F2"/>
<path d="M366.988 334.011L353.994 326.744L347.659 338.072L360.653 345.34L366.988 334.011Z" fill="#F1F2F2"/>
<path d="M350.43 324.75L337.436 317.482L331.1 328.811L344.094 336.078L350.43 324.75Z" fill="#F1F2F2"/>
<path d="M333.866 315.484L320.872 308.217L314.536 319.545L327.531 326.812L333.866 315.484Z" fill="#F1F2F2"/>
<path d="M317.31 306.226L304.316 298.959L297.981 310.287L310.975 317.554L317.31 306.226Z" fill="#F1F2F2"/>
<path d="M300.75 296.955L287.756 289.688L281.42 301.016L294.414 308.283L300.75 296.955Z" fill="#F1F2F2"/>
<path d="M284.19 287.701L271.196 280.434L264.861 291.762L277.855 299.029L284.19 287.701Z" fill="#F1F2F2"/>
<path d="M267.627 278.437L254.633 271.17L248.297 282.498L261.291 289.765L267.627 278.437Z" fill="#F1F2F2"/>
<path d="M251.069 269.175L238.075 261.908L231.74 273.236L244.734 280.504L251.069 269.175Z" fill="#F1F2F2"/>
<path d="M234.507 259.914L221.513 252.646L215.177 263.975L228.171 271.242L234.507 259.914Z" fill="#F1F2F2"/>
<path d="M217.945 250.658L204.951 243.391L198.616 254.719L211.61 261.986L217.945 250.658Z" fill="#F1F2F2"/>
<path d="M165.74 236.332L195.613 253.039L201.949 241.711L172.076 225.004L165.74 236.332Z" fill="#F1F2F2"/>
<path d="M223.173 288.283L286.211 323.539L292.547 312.211L229.509 276.955L223.173 288.283Z" fill="#F1F2F2"/>
<path d="M206.597 279.01L219.591 286.277L225.926 274.949L212.932 267.682L206.597 279.01Z" fill="#F1F2F2"/>
<path d="M190.163 269.815L203.157 277.082L209.493 265.754L196.499 258.487L190.163 269.815Z" fill="#F1F2F2"/>
<path d="M173.505 260.502L186.499 267.77L192.835 256.441L179.841 249.174L173.505 260.502Z" fill="#F1F2F2"/>
<path d="M157.29 251.43L170.284 258.697L176.62 247.369L163.626 240.102L157.29 251.43Z" fill="#F1F2F2"/>
<path d="M339.2 353.18L352.194 360.447L358.53 349.119L345.536 341.852L339.2 353.18Z" fill="#F1F2F2"/>
<path d="M322.767 343.985L335.761 351.252L342.096 339.924L329.102 332.657L322.767 343.985Z" fill="#F1F2F2"/>
<path d="M306.102 334.668L319.096 341.936L325.431 330.607L312.437 323.34L306.102 334.668Z" fill="#F1F2F2"/>
<path d="M289.891 325.606L302.885 332.873L309.22 321.545L296.226 314.278L289.891 325.606Z" fill="#F1F2F2"/>
<path d="M404.612 285.361C404.709 281.43 402.684 277.579 399.016 275.53L205.33 167.2C202.192 165.441 198.557 165.415 195.51 166.783L404.608 285.368L404.612 285.361Z" fill="#C27387"/>
<path d="M142.069 240.146L141.611 245.385" stroke="#EF889F" stroke-miterlimit="10"/>
<path d="M139.221 242.537L144.459 242.995" stroke="#EF889F" stroke-miterlimit="10"/>
<path d="M414.661 274.729C417.761 281.265 417.909 288.442 415.657 294.752" stroke="#EF889F" stroke-miterlimit="10"/>
<path d="M427.638 272.627C429.149 273.229 429.883 274.935 429.281 276.446C428.679 277.956 426.973 278.69 425.462 278.088C423.951 277.486 423.218 275.78 423.82 274.269C424.422 272.759 426.128 272.025 427.638 272.627Z" stroke="#EF889F" stroke-miterlimit="10"/>
</svg>
