<svg width="390" height="627" viewBox="0 0 390 627" fill="none" xmlns="http://www.w3.org/2000/svg">
<rect width="390" height="627" fill="#FAF6EA"/>
<path d="M351.723 227.857L167.307 297.842C162.286 299.747 156.669 297.219 154.765 292.198L129.085 224.519C127.18 219.498 129.708 213.881 134.729 211.977L319.144 141.992C324.166 140.087 329.783 142.615 331.687 147.636L357.367 215.315C359.272 220.336 356.744 225.953 351.723 227.857Z" fill="#EB7267" fill-opacity="0.5"/>
<path d="M347.906 229.281L163.491 299.266C158.47 301.17 152.853 298.643 150.948 293.622L125.268 225.943C123.364 220.922 125.891 215.305 130.913 213.4L315.328 143.416C320.349 141.511 325.966 144.039 327.871 149.06L353.551 216.739C355.455 221.76 352.928 227.377 347.906 229.281Z" fill="#E1A6AB"/>
<path d="M150.733 224.637L138.361 229.332L140.89 235.994L153.261 231.298L150.733 224.637Z" fill="#CF90A0"/>
<path d="M166.479 218.662L154.107 223.357L156.636 230.019L169.008 225.324L166.479 218.662Z" fill="#CF90A0"/>
<path d="M182.224 212.687L169.853 217.383L172.381 224.045L184.753 219.349L182.224 212.687Z" fill="#CF90A0"/>
<path d="M197.968 206.705L185.596 211.4L188.124 218.062L200.496 213.367L197.968 206.705Z" fill="#CF90A0"/>
<path d="M213.721 200.734L201.35 205.43L203.878 212.091L216.25 207.396L213.721 200.734Z" fill="#CF90A0"/>
<path d="M229.461 194.762L217.089 199.457L219.617 206.119L231.989 201.423L229.461 194.762Z" fill="#CF90A0"/>
<path d="M245.204 188.779L232.832 193.475L235.36 200.136L247.732 195.441L245.204 188.779Z" fill="#CF90A0"/>
<path d="M260.958 182.809L248.586 187.504L251.114 194.166L263.486 189.47L260.958 182.809Z" fill="#CF90A0"/>
<path d="M276.697 176.836L264.325 181.531L266.853 188.193L279.225 183.498L276.697 176.836Z" fill="#CF90A0"/>
<path d="M292.446 170.851L280.074 175.547L282.602 182.209L294.974 177.513L292.446 170.851Z" fill="#CF90A0"/>
<path d="M308.191 164.877L295.819 169.572L298.348 176.234L310.719 171.539L308.191 164.877Z" fill="#CF90A0"/>
<path d="M323.939 158.908L311.567 163.604L314.096 170.265L326.468 165.57L323.939 158.908Z" fill="#CF90A0"/>
<path d="M154.618 234.893L142.246 239.588L146.339 250.374L158.711 245.678L154.618 234.893Z" fill="#CF90A0"/>
<path d="M170.391 228.914L158.02 233.609L162.113 244.395L174.485 239.7L170.391 228.914Z" fill="#CF90A0"/>
<path d="M186.156 222.932L173.784 227.627L177.878 238.413L190.249 233.717L186.156 222.932Z" fill="#CF90A0"/>
<path d="M201.925 216.941L189.553 221.637L193.646 232.422L206.018 227.727L201.925 216.941Z" fill="#CF90A0"/>
<path d="M217.688 210.959L205.316 215.654L209.41 226.44L221.782 221.745L217.688 210.959Z" fill="#CF90A0"/>
<path d="M233.459 204.975L221.087 209.67L225.18 220.456L237.552 215.76L233.459 204.975Z" fill="#CF90A0"/>
<path d="M249.223 198.992L236.852 203.688L240.945 214.473L253.317 209.778L249.223 198.992Z" fill="#CF90A0"/>
<path d="M264.994 193.006L252.622 197.701L256.715 208.487L269.087 203.792L264.994 193.006Z" fill="#CF90A0"/>
<path d="M280.759 187.023L268.387 191.719L272.48 202.504L284.852 197.809L280.759 187.023Z" fill="#CF90A0"/>
<path d="M296.529 181.039L284.157 185.734L288.251 196.52L300.622 191.825L296.529 181.039Z" fill="#CF90A0"/>
<path d="M327.83 169.161L299.388 179.955L303.481 190.741L331.924 179.946L327.83 169.161Z" fill="#CF90A0"/>
<path d="M333.296 183.543L320.924 188.238L325.017 199.024L337.389 194.329L333.296 183.543Z" fill="#CF90A0"/>
<path d="M317.525 189.527L305.153 194.223L309.247 205.008L321.619 200.313L317.525 189.527Z" fill="#CF90A0"/>
<path d="M301.761 195.51L289.389 200.205L293.482 210.991L305.854 206.295L301.761 195.51Z" fill="#CF90A0"/>
<path d="M285.989 201.494L273.617 206.189L277.711 216.975L290.082 212.28L285.989 201.494Z" fill="#CF90A0"/>
<path d="M270.223 207.471L257.852 212.166L261.945 222.952L274.317 218.256L270.223 207.471Z" fill="#CF90A0"/>
<path d="M254.448 213.465L242.076 218.16L246.17 228.946L258.541 224.251L254.448 213.465Z" fill="#CF90A0"/>
<path d="M238.683 219.447L226.312 224.143L230.405 234.928L242.777 230.233L238.683 219.447Z" fill="#CF90A0"/>
<path d="M222.913 225.432L210.541 230.127L214.634 240.913L227.006 236.217L222.913 225.432Z" fill="#CF90A0"/>
<path d="M207.149 231.414L194.777 236.109L198.871 246.895L211.243 242.2L207.149 231.414Z" fill="#CF90A0"/>
<path d="M191.381 237.404L179.009 242.1L183.102 252.885L195.474 248.19L191.381 237.404Z" fill="#CF90A0"/>
<path d="M151.803 264.763L180.245 253.969L176.152 243.183L147.709 253.978L151.803 264.763Z" fill="#CF90A0"/>
<path d="M338.747 197.926L326.375 202.621L330.468 213.407L342.84 208.711L338.747 197.926Z" fill="#CF90A0"/>
<path d="M322.981 203.902L310.609 208.598L314.703 219.383L327.075 214.688L322.981 203.902Z" fill="#CF90A0"/>
<path d="M307.21 209.887L294.838 214.582L298.931 225.368L311.303 220.672L307.21 209.887Z" fill="#CF90A0"/>
<path d="M291.445 215.869L279.073 220.564L283.167 231.35L295.539 226.655L291.445 215.869Z" fill="#CF90A0"/>
<path d="M275.683 221.857L263.312 226.553L267.405 237.338L279.777 232.643L275.683 221.857Z" fill="#CF90A0"/>
<path d="M259.913 227.844L247.541 232.539L251.634 243.325L264.006 238.629L259.913 227.844Z" fill="#CF90A0"/>
<path d="M244.149 233.826L231.777 238.521L235.871 249.307L248.243 244.612L244.149 233.826Z" fill="#CF90A0"/>
<path d="M228.376 239.803L216.004 244.498L220.097 255.284L232.469 250.588L228.376 239.803Z" fill="#CF90A0"/>
<path d="M212.613 245.793L200.241 250.488L204.335 261.274L216.706 256.579L212.613 245.793Z" fill="#CF90A0"/>
<path d="M196.843 251.777L184.471 256.473L188.564 267.258L200.936 262.563L196.843 251.777Z" fill="#CF90A0"/>
<path d="M157.258 279.142L185.7 268.348L181.607 257.562L153.164 268.356L157.258 279.142Z" fill="#CF90A0"/>
<path d="M225.444 269.724L285.464 246.945L281.37 236.16L221.351 258.938L225.444 269.724Z" fill="#CF90A0"/>
<path d="M209.668 275.711L222.04 271.016L217.947 260.23L205.575 264.925L209.668 275.711Z" fill="#CF90A0"/>
<path d="M194.008 281.643L206.38 276.947L202.286 266.162L189.915 270.857L194.008 281.643Z" fill="#CF90A0"/>
<path d="M178.151 287.664L190.522 282.969L186.429 272.183L174.057 276.878L178.151 287.664Z" fill="#CF90A0"/>
<path d="M162.711 293.527L175.083 288.832L170.99 278.046L158.618 282.742L162.711 293.527Z" fill="#CF90A0"/>
<path d="M335.927 227.799L348.299 223.104L344.205 212.318L331.834 217.013L335.927 227.799Z" fill="#CF90A0"/>
<path d="M320.274 233.729L332.646 229.033L328.552 218.247L316.18 222.943L320.274 233.729Z" fill="#CF90A0"/>
<path d="M304.408 239.752L316.78 235.057L312.687 224.271L300.315 228.966L304.408 239.752Z" fill="#CF90A0"/>
<path d="M288.977 245.613L301.349 240.918L297.255 230.132L284.883 234.828L288.977 245.613Z" fill="#CF90A0"/>
<path d="M148.821 225.35L136.449 230.045L138.977 236.707L151.349 232.011L148.821 225.35Z" fill="#F1F2F2"/>
<path d="M164.572 219.371L152.2 224.066L154.728 230.728L167.1 226.033L164.572 219.371Z" fill="#F1F2F2"/>
<path d="M180.313 213.404L167.941 218.1L170.47 224.761L182.842 220.066L180.313 213.404Z" fill="#F1F2F2"/>
<path d="M196.063 207.422L183.691 212.117L186.22 218.779L198.592 214.084L196.063 207.422Z" fill="#F1F2F2"/>
<path d="M211.808 201.445L199.437 206.141L201.965 212.802L214.337 208.107L211.808 201.445Z" fill="#F1F2F2"/>
<path d="M227.554 195.471L215.182 200.166L217.71 206.828L230.082 202.132L227.554 195.471Z" fill="#F1F2F2"/>
<path d="M243.299 189.496L230.927 194.191L233.455 200.853L245.827 196.158L243.299 189.496Z" fill="#F1F2F2"/>
<path d="M259.051 183.518L246.679 188.213L249.207 194.875L261.579 190.179L259.051 183.518Z" fill="#F1F2F2"/>
<path d="M274.79 177.545L262.418 182.24L264.946 188.902L277.318 184.207L274.79 177.545Z" fill="#F1F2F2"/>
<path d="M290.542 171.568L278.17 176.264L280.698 182.925L293.07 178.23L290.542 171.568Z" fill="#F1F2F2"/>
<path d="M306.287 165.592L293.915 170.287L296.443 176.949L308.815 172.254L306.287 165.592Z" fill="#F1F2F2"/>
<path d="M322.023 159.613L309.651 164.309L312.18 170.97L324.552 166.275L322.023 159.613Z" fill="#F1F2F2"/>
<path d="M152.715 235.609L140.343 240.305L144.436 251.09L156.808 246.395L152.715 235.609Z" fill="#F1F2F2"/>
<path d="M168.485 229.625L156.113 234.32L160.207 245.106L172.579 240.411L168.485 229.625Z" fill="#F1F2F2"/>
<path d="M184.247 223.637L171.875 228.332L175.968 239.118L188.34 234.422L184.247 223.637Z" fill="#F1F2F2"/>
<path d="M200.017 217.652L187.646 222.348L191.739 233.133L204.111 228.438L200.017 217.652Z" fill="#F1F2F2"/>
<path d="M215.782 211.67L203.41 216.365L207.504 227.151L219.875 222.456L215.782 211.67Z" fill="#F1F2F2"/>
<path d="M231.55 205.693L219.178 210.389L223.271 221.174L235.643 216.479L231.55 205.693Z" fill="#F1F2F2"/>
<path d="M247.319 199.709L234.947 204.404L239.041 215.19L251.413 210.495L247.319 199.709Z" fill="#F1F2F2"/>
<path d="M263.082 193.719L250.71 198.414L254.803 209.2L267.175 204.504L263.082 193.719Z" fill="#F1F2F2"/>
<path d="M278.852 187.734L266.48 192.43L270.574 203.215L282.946 198.52L278.852 187.734Z" fill="#F1F2F2"/>
<path d="M294.623 181.75L282.251 186.445L286.344 197.231L298.716 192.536L294.623 181.75Z" fill="#F1F2F2"/>
<path d="M325.924 169.871L297.481 180.666L301.575 191.452L330.017 180.657L325.924 169.871Z" fill="#F1F2F2"/>
<path d="M331.379 184.248L319.007 188.943L323.1 199.729L335.472 195.034L331.379 184.248Z" fill="#F1F2F2"/>
<path d="M315.617 190.236L303.245 194.932L307.339 205.717L319.71 201.022L315.617 190.236Z" fill="#F1F2F2"/>
<path d="M299.845 196.221L287.474 200.916L291.567 211.702L303.939 207.006L299.845 196.221Z" fill="#F1F2F2"/>
<path d="M284.082 202.205L271.71 206.9L275.803 217.686L288.175 212.991L284.082 202.205Z" fill="#F1F2F2"/>
<path d="M268.311 208.189L255.939 212.885L260.033 223.67L272.405 218.975L268.311 208.189Z" fill="#F1F2F2"/>
<path d="M252.55 214.178L240.178 218.873L244.271 229.659L256.643 224.963L252.55 214.178Z" fill="#F1F2F2"/>
<path d="M236.776 220.156L224.404 224.852L228.498 235.637L240.87 230.942L236.776 220.156Z" fill="#F1F2F2"/>
<path d="M221.012 226.139L208.64 230.834L212.733 241.62L225.105 236.924L221.012 226.139Z" fill="#F1F2F2"/>
<path d="M205.235 232.125L192.863 236.82L196.957 247.606L209.329 242.911L205.235 232.125Z" fill="#F1F2F2"/>
<path d="M189.472 238.115L177.101 242.811L181.194 253.596L193.566 248.901L189.472 238.115Z" fill="#F1F2F2"/>
<path d="M149.891 265.472L178.334 254.678L174.241 243.892L145.798 254.687L149.891 265.472Z" fill="#F1F2F2"/>
<path d="M336.841 198.637L324.469 203.332L328.562 214.118L340.934 209.422L336.841 198.637Z" fill="#F1F2F2"/>
<path d="M321.076 204.619L308.704 209.314L312.798 220.1L325.169 215.405L321.076 204.619Z" fill="#F1F2F2"/>
<path d="M305.304 210.603L292.933 215.299L297.026 226.085L309.398 221.389L305.304 210.603Z" fill="#F1F2F2"/>
<path d="M289.541 216.586L277.169 221.281L281.262 232.067L293.634 227.372L289.541 216.586Z" fill="#F1F2F2"/>
<path d="M273.768 222.564L261.396 227.26L265.49 238.045L277.862 233.35L273.768 222.564Z" fill="#F1F2F2"/>
<path d="M258.006 228.553L245.634 233.248L249.727 244.034L262.099 239.338L258.006 228.553Z" fill="#F1F2F2"/>
<path d="M242.235 234.539L229.863 239.234L233.957 250.02L246.329 245.325L242.235 234.539Z" fill="#F1F2F2"/>
<path d="M226.47 240.521L214.099 245.217L218.192 256.003L230.564 251.307L226.47 240.521Z" fill="#F1F2F2"/>
<path d="M210.7 246.506L198.328 251.201L202.422 261.987L214.793 257.292L210.7 246.506Z" fill="#F1F2F2"/>
<path d="M194.938 252.494L182.566 257.189L186.66 267.975L199.032 263.28L194.938 252.494Z" fill="#F1F2F2"/>
<path d="M155.355 279.855L183.798 269.061L179.704 258.275L151.262 269.069L155.355 279.855Z" fill="#F1F2F2"/>
<path d="M223.54 270.431L283.56 247.652L279.466 236.867L219.447 259.645L223.54 270.431Z" fill="#F1F2F2"/>
<path d="M207.756 276.42L220.128 271.725L216.035 260.939L203.663 265.634L207.756 276.42Z" fill="#F1F2F2"/>
<path d="M192.106 282.356L204.478 277.66L200.384 266.874L188.012 271.57L192.106 282.356Z" fill="#F1F2F2"/>
<path d="M176.247 288.377L188.619 283.682L184.526 272.896L172.154 277.591L176.247 288.377Z" fill="#F1F2F2"/>
<path d="M160.807 294.232L173.179 289.537L169.085 278.751L156.713 283.447L160.807 294.232Z" fill="#F1F2F2"/>
<path d="M334.015 228.508L346.387 223.812L342.293 213.027L329.921 217.722L334.015 228.508Z" fill="#F1F2F2"/>
<path d="M318.364 234.443L330.736 229.748L326.643 218.962L314.271 223.658L318.364 234.443Z" fill="#F1F2F2"/>
<path d="M302.5 240.469L314.872 235.773L310.779 224.988L298.407 229.683L302.5 240.469Z" fill="#F1F2F2"/>
<path d="M287.068 246.328L299.439 241.633L295.346 230.847L282.974 235.542L287.068 246.328Z" fill="#F1F2F2"/>
<path d="M325.213 145.225C322.592 142.913 318.813 142.092 315.322 143.418L130.907 213.403C127.916 214.535 125.821 216.995 125.012 219.851L325.215 145.231L325.213 145.225Z" fill="#C27387"/>
<path d="M325.443 132.234C332.613 134.106 338.342 138.715 341.812 144.638" stroke="#EF889F" stroke-miterlimit="10"/>
<path d="M332.338 120.666C333.806 119.877 335.628 120.425 336.417 121.892C337.206 123.359 336.658 125.181 335.191 125.97C333.724 126.759 331.902 126.212 331.113 124.745C330.324 123.277 330.871 121.455 332.338 120.666Z" stroke="#EF889F" stroke-miterlimit="10"/>
<path d="M146 313L150.87 317.87" stroke="#EF889F" stroke-miterlimit="10"/>
<path d="M146 317.87L150.87 313" stroke="#EF889F" stroke-miterlimit="10"/>
<path d="M124.035 166.601C123.01 165.167 122.002 163.732 120.947 162.33C121.09 162.047 121.225 161.763 121.355 161.467C121.63 160.813 121.834 160.152 121.976 159.493C125.547 156.079 127.798 157.034 127.798 157.034L129.002 154.147C112.373 136.475 95.2061 140.026 95.2061 140.026C90.6642 134.553 83.1591 134.995 83.1591 134.995C81.2219 132.793 79.2142 130.942 77.2001 129.382C75.3783 127.66 73.2198 126.248 70.9333 125.294C70.6104 125.156 70.2794 125.037 69.9483 124.917C59.6229 120.027 50.6992 121.441 50.6992 121.441L48.994 125.53C50.6697 126.088 51.0856 127.501 51.058 128.852C50.4614 129.634 49.9476 130.5 49.5435 131.469C49.3174 132.016 49.1356 132.57 48.9983 133.131C47.7702 133.319 46.5425 133.516 45.3059 133.714L39.7882 134.67L41.5313 139.982C42.2843 139.6 43.1215 139.228 43.9379 138.888C44.7582 138.534 45.5883 138.207 46.4191 137.897C47.1755 137.604 47.9375 137.341 48.704 137.082C49.2523 143.334 54.2917 149.472 60.2233 151.949C68.7104 155.494 78.4904 152.247 81.578 144.858C82.1074 143.589 82.3936 142.308 82.4684 141.034L87.5999 143.128L91.3989 144.751C90.5441 145.702 89.8275 146.806 89.294 148.079C86.0326 155.885 92.2487 165.33 99.9825 168.559C106.743 171.38 114.314 169.894 118.684 165.443C119.237 166.534 119.778 167.629 120.266 168.744C120.632 169.56 120.981 170.376 121.309 171.206C121.64 172.022 121.96 172.879 122.224 173.685L127.224 171.195L124.022 166.597L124.035 166.601ZM111.034 151.499C110.376 151.035 109.667 150.608 108.861 150.303L103.812 148.295C100.694 147.047 97.5679 145.825 94.4531 144.555C98.5755 141.609 104.908 141.534 109.974 143.652C114.969 145.737 119.309 150.199 120.203 155.123C117.136 153.939 114.081 152.733 111.034 151.508L111.034 151.499ZM120.367 157.102C120.346 158.272 120.122 159.45 119.65 160.619C118.907 159.651 118.152 158.696 117.37 157.751C116.436 156.622 115.462 155.516 114.425 154.453C116.412 155.326 118.392 156.207 120.363 157.098L120.367 157.102ZM93.0401 143.255C92.8386 143.408 92.6374 143.57 92.4497 143.736L88.1023 141.961L82.4913 139.56C82.4913 139.56 82.4867 139.556 82.4822 139.552C82.4632 139.288 82.4355 139.024 82.3989 138.761C86.8057 137.48 91.0403 139.881 93.0489 143.254L93.0401 143.255ZM51.2831 132.196C51.7845 131.004 52.4734 129.985 53.3097 129.128C55.7854 130.07 58.2443 131.03 60.7037 132.008C59.2215 132.012 57.747 132.099 56.2871 132.225C54.5284 132.381 52.7844 132.576 51.0473 132.836C51.1185 132.622 51.1985 132.407 51.2919 132.196L51.2831 132.196ZM72.5445 135.225L67.5684 133.046C66.7828 132.693 65.9854 132.489 65.1902 132.348C61.7495 130.86 58.3208 129.342 54.9041 127.792C59.0323 124.995 65.2335 124.952 70.2146 127.033C75.2764 129.147 79.6592 133.691 80.4771 138.689C77.8304 137.546 75.1915 136.376 72.5491 135.229L72.5445 135.225ZM60.9596 150.21C55.4583 147.91 50.7826 142.168 50.5431 136.491C50.8569 136.391 51.175 136.286 51.4934 136.19C54.9062 135.221 58.4041 134.399 61.8787 134.235C62.7464 134.197 63.6066 134.195 64.448 134.278C65.2848 134.356 66.1109 134.501 66.8279 134.791L71.8585 136.782C74.7797 137.95 77.7002 139.099 80.6129 140.276C80.6177 141.555 80.3805 142.848 79.8469 144.122C77.1998 150.457 68.3748 153.296 60.9592 150.201L60.9596 150.21ZM100.719 166.819C93.8055 163.934 88.2017 155.616 91.0424 148.806C91.5756 147.524 92.3327 146.441 93.2557 145.545C96.5789 146.957 99.878 148.432 103.189 149.876L108.143 152.051C108.852 152.359 109.537 152.849 110.179 153.385C110.831 153.92 111.432 154.537 112.017 155.181C114.275 157.688 116.095 160.641 117.763 163.647C114.007 167.868 106.875 169.394 100.719 166.819Z" fill="#EB7267" fill-opacity="0.5"/>
<path d="M93.0216 137.934C88.4797 132.461 80.9746 132.903 80.9746 132.903C66.5236 116.475 48.5143 119.34 48.5143 119.34L46.8091 123.429C50.3973 124.619 48.2242 129.736 48.2242 129.736C51.1703 122.684 60.6867 120.85 68.3893 124.067C74.155 126.476 78.6263 131.603 79.2694 136.991C84.3775 134.899 89.4408 137.974 91.3164 142.023C95.5963 138.696 102.383 138.268 108.153 140.681C115.856 143.898 121.238 151.959 118.292 159.012C122.712 153.716 125.61 154.946 125.61 154.946L126.814 152.059C110.184 134.387 93.0173 137.939 93.0173 137.939L93.0216 137.934Z" fill="#654659"/>
<path d="M37.6032 132.57L43.1209 131.613C44.945 131.323 46.7639 131.011 48.5901 130.773C50.4104 130.496 52.2467 130.293 54.089 130.13C55.9313 129.967 57.7893 129.869 59.6706 129.921C60.6112 129.942 61.5579 130.012 62.5123 130.165C63.4664 130.309 64.4319 130.524 65.3792 130.951L70.3552 133.129C73.6663 134.573 76.9654 136.048 80.2886 137.461L90.2546 141.72C93.5902 143.11 96.9137 144.531 100.262 145.899C106.945 148.656 113.644 151.36 120.404 153.933L119.681 155.677C113.095 152.678 106.455 149.808 99.8006 146.993C96.4728 145.576 93.1249 144.209 89.7936 142.814L79.7456 138.717C76.4019 137.345 73.0253 136.036 69.6692 134.686L64.6386 132.695C63.9174 132.41 63.0913 132.265 62.2587 132.182C61.4215 132.095 60.5571 132.101 59.6894 132.139C56.2103 132.299 52.7169 133.125 49.3041 134.094C47.6036 134.618 45.9037 135.16 44.2386 135.801C43.4036 136.116 42.5735 136.443 41.7574 136.792C40.9411 137.132 40.1084 137.508 39.3508 137.886L37.6077 132.574L37.6032 132.57Z" fill="#654659"/>
<path d="M120.044 171.588C119.784 170.787 119.465 169.93 119.129 169.109C118.802 168.279 118.453 167.463 118.086 166.647C117.375 165.011 116.56 163.423 115.736 161.845C114.024 158.738 112.156 155.673 109.829 153.084C109.244 152.44 108.642 151.824 107.991 151.288C107.344 150.748 106.659 150.267 105.954 149.955L101 147.78C97.6805 146.336 94.3814 144.861 91.0537 143.444L81.0785 139.176C77.743 137.787 74.4195 136.365 71.0715 134.998C64.3881 132.241 57.6844 129.533 50.9196 126.955L51.6517 125.22C58.2297 128.219 64.8644 131.084 71.5192 133.9C74.847 135.317 78.1861 136.684 81.5262 138.078L91.5608 142.172C94.9045 143.544 98.2723 144.853 101.628 146.194L106.677 148.202C107.649 148.575 108.476 149.112 109.248 149.683C110.025 150.258 110.741 150.879 111.419 151.532C112.779 152.834 114.015 154.225 115.194 155.649C116.374 157.073 117.519 158.525 118.604 160.014C119.724 161.485 120.774 162.993 121.851 164.5L125.053 169.098L120.053 171.588L120.044 171.588Z" fill="#654659"/>
<path opacity="0.5" d="M118.292 159.003C115.346 166.056 105.873 168.805 98.1706 165.588C90.468 162.372 85.0419 153.394 87.988 146.342C90.9341 139.289 100.451 137.456 108.153 140.673C115.856 143.889 121.238 151.951 118.292 159.003Z" fill="#E1A6AB"/>
<path opacity="0.5" d="M78.532 142.394C75.5859 149.446 66.1133 152.196 58.4108 148.979C50.7083 145.762 45.2822 136.785 48.2282 129.732C51.1743 122.68 60.6908 120.846 68.3933 124.063C76.0959 127.28 81.4781 135.341 78.532 142.394Z" fill="#E1A6AB"/>
<path d="M97.8066 166.457C90.0727 163.228 83.8566 153.782 87.118 145.977C90.4356 138.028 100.81 136.58 108.517 139.801C116.224 143.023 122.483 151.412 119.166 159.361C116.078 166.75 106.298 169.997 97.8108 166.452L97.8066 166.457ZM107.789 141.541C100.921 138.672 91.7311 139.831 88.8576 146.704C86.0124 153.51 91.6207 161.832 98.5341 164.717C105.95 167.813 114.775 164.973 117.422 158.638C120.295 151.765 114.658 144.41 107.789 141.541Z" fill="#654659"/>
<path d="M58.043 149.853C50.3092 146.625 44.0931 137.179 47.3544 129.373C50.6721 121.424 61.046 119.977 68.7531 123.198C76.4602 126.419 82.7197 134.809 79.3978 142.762C76.3102 150.151 66.5347 153.402 58.043 149.853ZM68.0256 124.937C61.1569 122.068 51.9676 123.227 49.094 130.101C46.2488 136.907 51.8572 145.229 58.7705 148.114C66.1861 151.209 75.0111 148.37 77.6582 142.035C80.5317 135.161 74.8942 127.807 68.0256 124.937Z" fill="#654659"/>
<path opacity="0.53" d="M65.3686 124.973L62.2012 125.893L68.2741 146.819L71.4415 145.9L65.3686 124.973Z" fill="white"/>
<path opacity="0.53" d="M58.9899 126.108L57.1816 126.633L63.2546 147.559L65.0628 147.034L58.9899 126.108Z" fill="white"/>
<path d="M153.51 69.2283C152.412 67.6884 150.268 67.3268 148.728 68.4241L139.993 74.6399C134.65 67.5699 126.171 63 116.626 63C100.454 63 87.3486 76.1113 87.3486 92.2775C87.3486 108.444 100.46 121.555 116.626 121.555C132.792 121.555 145.904 108.444 145.904 92.2775C145.904 88.1003 145.025 84.1351 143.447 80.544C143.597 80.4692 143.74 80.3819 143.877 80.2884L152.699 74.0102C154.239 72.9129 154.601 70.7683 153.504 69.2283H153.51Z" fill="#EB7267" fill-opacity="0.5"/>
<path d="M149.146 69.2283C148.048 67.6884 145.904 67.3268 144.364 68.4241L135.629 74.6399C130.286 67.5699 121.807 63 112.262 63C96.0894 63 82.9844 76.1113 82.9844 92.2775C82.9844 108.444 96.0957 121.555 112.262 121.555C128.428 121.555 141.539 108.444 141.539 92.2775C141.539 88.1003 140.66 84.1351 139.083 80.544C139.233 80.4692 139.376 80.3819 139.513 80.2884L148.335 74.0102C149.875 72.9129 150.237 70.7683 149.139 69.2283H149.146Z" fill="#F6E4E6"/>
<path d="M112.256 115.326C99.5498 115.326 89.2129 104.989 89.2129 92.2832C89.2129 79.5771 99.5498 69.2402 112.256 69.2402C124.962 69.2402 135.299 79.5771 135.299 92.2832C135.299 104.989 124.962 115.326 112.256 115.326Z" fill="#785C6C"/>
<path d="M101.906 90.8246C101.906 81.2608 107.767 73.0374 116.083 69.5586C114.837 69.3528 113.565 69.2344 112.262 69.2344C99.5557 69.2344 89.2188 79.5713 89.2188 92.2773C89.2188 104.983 99.5557 115.32 112.262 115.32C115.404 115.32 118.403 114.684 121.133 113.543C110.242 111.717 101.912 102.228 101.912 90.8184L101.906 90.8246Z" fill="#59384B"/>
<path d="M120.841 88.7491C123.554 88.7491 125.753 87.401 125.753 85.7379C125.753 84.0748 123.554 82.7266 120.841 82.7266C118.127 82.7266 115.928 84.0748 115.928 85.7379C115.928 87.401 118.127 88.7491 120.841 88.7491Z" fill="#D3CACF"/>
<path d="M52.6445 96.9258L51.6035 101.088" stroke="#EF889F" stroke-miterlimit="10"/>
<path d="M50.0458 98.4887L54.208 99.5297" stroke="#EF889F" stroke-miterlimit="10"/>
<path d="M35.3276 118.55C34.8354 113.707 37.1059 108.788 41.5564 106.123C44.6243 104.282 48.1468 103.862 51.3658 104.663" stroke="#EF889F" stroke-miterlimit="10"/>
<path d="M142.965 120C138.913 124.449 133.474 126.795 127.965 127" stroke="#EF889F" stroke-miterlimit="10"/>
<path d="M147.965 129.5C147.965 130.883 147.071 132 145.965 132C144.858 132 143.965 130.883 143.965 129.5C143.965 128.117 144.858 127 145.965 127C147.071 127 147.965 128.117 147.965 129.5Z" stroke="#EF889F" stroke-miterlimit="10"/>
</svg>
