<svg width="1440" height="838" viewBox="0 0 1440 838" fill="none" xmlns="http://www.w3.org/2000/svg">
<rect y="-2" width="1440" height="840" fill="#FAF6EA"/>
<path d="M190.685 218.12C182.525 199.36 180.635 185.7 178.965 173.64C177.495 163 176.225 153.82 170.885 143.6C168.645 139.3 164.715 138.34 160.545 137.32C154.005 135.72 146.585 133.9 148.355 118.57C149.825 105.88 161.705 101.85 172.195 98.3C179.765 95.73 186.925 93.31 189.485 88.19C193.195 80.77 193.645 74.62 190.865 69.38C181.845 52.4 140.015 46.94 99.5648 41.67C50.2548 35.24 -0.725196 28.58 1.0448 0L5.03479 0.25C3.49479 25.11 52.5948 31.51 100.085 37.71C143.445 43.37 184.405 48.71 194.395 67.51C197.785 73.89 197.335 81.45 193.055 89.99C189.755 96.58 181.475 99.39 173.465 102.1C163.195 105.58 153.495 108.87 152.315 119.04C150.945 130.87 155.135 131.89 161.475 133.45C166.095 134.58 171.325 135.86 174.405 141.76C180.375 153.18 181.355 161.92 182.895 173.1C184.525 184.9 186.375 198.28 194.315 216.53L190.645 218.12H190.685Z" fill="#EB7267" fill-opacity="0.5"/>
<path d="M193.507 212.452L192.588 212.846C177.613 219.264 170.677 236.606 177.095 251.581L187.731 276.398C194.15 291.373 211.492 298.309 226.467 291.891L227.386 291.497C242.361 285.079 249.298 267.736 242.879 252.761L232.243 227.945C225.825 212.97 208.482 206.033 193.507 212.452Z" fill="#EB7267" fill-opacity="0.53"/>
<path d="M188.512 212.452L187.593 212.846C172.618 219.264 165.681 236.606 172.099 251.581L182.736 276.398C189.154 291.373 206.497 298.309 221.472 291.891L222.391 291.497C237.366 285.079 244.302 267.736 237.884 252.761L227.247 227.945C220.829 212.97 203.487 206.033 188.512 212.452Z" fill="#F4DFE1"/>
<path d="M199.475 239.18C197.665 239.96 195.575 239.12 194.795 237.31L192.235 231.34C191.455 229.53 192.295 227.44 194.105 226.66C195.915 225.88 198.005 226.72 198.785 228.53L201.345 234.5C202.125 236.31 201.285 238.4 199.475 239.18Z" fill="#EBC3C7"/>
<path d="M201.355 234.5L198.795 228.53C198.035 226.77 196.025 225.94 194.255 226.62L199.545 239.15C201.315 238.35 202.125 236.29 201.355 234.5Z" fill="#E1A6AB"/>
<path d="M186.685 218.12C178.525 199.36 176.635 185.7 174.965 173.64C173.495 163 172.225 153.82 166.885 143.6C164.645 139.3 160.715 138.34 156.545 137.32C150.005 135.72 142.585 133.9 144.355 118.57C145.825 105.88 157.705 101.85 168.195 98.3C175.765 95.73 182.925 93.31 185.485 88.19C189.195 80.77 189.645 74.62 186.865 69.38C177.845 52.4 136.015 46.94 95.5648 41.67C46.2548 35.24 -4.7252 28.58 -2.9552 0L1.03479 0.25C-0.505206 25.11 48.5948 31.51 96.0848 37.71C139.445 43.37 180.405 48.71 190.395 67.51C193.785 73.89 193.335 81.45 189.055 89.99C185.755 96.58 177.475 99.39 169.465 102.1C159.195 105.58 149.495 108.87 148.315 119.04C146.945 130.87 151.135 131.89 157.475 133.45C162.095 134.58 167.325 135.86 170.405 141.76C176.065 152.59 177.375 162.1 178.895 173.1C180.525 184.9 182.375 198.28 190.315 216.53L186.645 218.12H186.685Z" fill="#F6E3E5"/>
<path d="M1088 298L1036.5 305.5C1034.95 306.047 1032.74 305.265 1031.35 299.533L1012.54 222.274C1011.14 216.542 1017.91 205.291 1019.46 204.744L1063.4 194.542C1064.95 193.995 1073.62 194.425 1075.01 200.157L1093.83 277.416C1098 290 1092.5 294 1088 298Z" fill="#EB7267" fill-opacity="0.5"/>
<path d="M1394.47 672.413L1122.71 775.543C1115.31 778.349 1107.03 774.625 1104.23 767.226L1066.39 667.494C1063.58 660.095 1067.3 651.818 1074.7 649.011L1346.46 545.882C1353.86 543.075 1362.13 546.8 1364.94 554.199L1402.78 653.931C1405.59 661.33 1401.87 669.607 1394.47 672.413Z" fill="#EB7267" fill-opacity="0.5"/>
<path d="M1388.84 674.512L1117.09 777.641C1109.69 780.448 1101.41 776.723 1098.61 769.324L1060.76 669.592C1057.96 662.193 1061.68 653.916 1069.08 651.11L1340.84 547.98C1348.23 545.174 1356.51 548.898 1359.32 556.297L1397.16 656.029C1399.97 663.428 1396.24 671.705 1388.84 674.512Z" fill="#E1A6AB"/>
<path d="M1098.29 667.67L1080.06 674.589L1083.78 684.406L1102.01 677.487L1098.29 667.67Z" fill="#CF90A0"/>
<path d="M1121.49 658.865L1103.26 665.784L1106.98 675.6L1125.22 668.681L1121.49 658.865Z" fill="#CF90A0"/>
<path d="M1144.69 650.059L1126.46 656.979L1130.19 666.795L1148.42 659.876L1144.69 650.059Z" fill="#CF90A0"/>
<path d="M1167.89 641.245L1149.66 648.164L1153.39 657.981L1171.62 651.062L1167.89 641.245Z" fill="#CF90A0"/>
<path d="M1191.11 632.446L1172.88 639.365L1176.6 649.182L1194.83 642.263L1191.11 632.446Z" fill="#CF90A0"/>
<path d="M1214.3 623.644L1196.07 630.563L1199.79 640.38L1218.03 633.461L1214.3 623.644Z" fill="#CF90A0"/>
<path d="M1237.5 614.83L1219.27 621.749L1222.99 631.566L1241.22 624.647L1237.5 614.83Z" fill="#CF90A0"/>
<path d="M1260.71 606.031L1242.48 612.95L1246.21 622.766L1264.44 615.847L1260.71 606.031Z" fill="#CF90A0"/>
<path d="M1283.91 597.229L1265.68 604.148L1269.4 613.965L1287.63 607.046L1283.91 597.229Z" fill="#CF90A0"/>
<path d="M1307.11 588.411L1288.88 595.331L1292.61 605.147L1310.84 598.228L1307.11 588.411Z" fill="#CF90A0"/>
<path d="M1330.32 579.606L1312.09 586.525L1315.81 596.342L1334.04 589.423L1330.32 579.606Z" fill="#CF90A0"/>
<path d="M1353.52 570.811L1335.29 577.73L1339.02 587.547L1357.25 580.628L1353.52 570.811Z" fill="#CF90A0"/>
<path d="M1104.01 682.783L1085.78 689.702L1091.81 705.596L1110.05 698.677L1104.01 682.783Z" fill="#CF90A0"/>
<path d="M1127.26 673.973L1109.03 680.893L1115.06 696.786L1133.29 689.867L1127.26 673.973Z" fill="#CF90A0"/>
<path d="M1150.49 665.158L1132.26 672.077L1138.29 687.971L1156.52 681.052L1150.49 665.158Z" fill="#CF90A0"/>
<path d="M1173.72 656.329L1155.49 663.249L1161.52 679.142L1179.76 672.223L1173.72 656.329Z" fill="#CF90A0"/>
<path d="M1196.95 647.514L1178.72 654.433L1184.75 670.326L1202.98 663.407L1196.95 647.514Z" fill="#CF90A0"/>
<path d="M1220.19 638.695L1201.96 645.614L1207.99 661.508L1226.23 654.589L1220.19 638.695Z" fill="#CF90A0"/>
<path d="M1243.42 629.879L1225.19 636.798L1231.22 652.692L1249.46 645.773L1243.42 629.879Z" fill="#CF90A0"/>
<path d="M1266.66 621.06L1248.43 627.979L1254.46 643.873L1272.69 636.954L1266.66 621.06Z" fill="#CF90A0"/>
<path d="M1289.89 612.244L1271.66 619.163L1277.69 635.057L1295.93 628.138L1289.89 612.244Z" fill="#CF90A0"/>
<path d="M1313.13 603.425L1294.9 610.344L1300.93 626.238L1319.17 619.319L1313.13 603.425Z" fill="#CF90A0"/>
<path d="M1359.26 585.92L1317.35 601.827L1323.38 617.721L1365.29 601.814L1359.26 585.92Z" fill="#CF90A0"/>
<path d="M1367.31 607.112L1349.08 614.031L1355.11 629.925L1373.34 623.006L1367.31 607.112Z" fill="#CF90A0"/>
<path d="M1344.07 615.931L1325.84 622.85L1331.87 638.744L1350.1 631.825L1344.07 615.931Z" fill="#CF90A0"/>
<path d="M1320.84 624.747L1302.61 631.666L1308.64 647.56L1326.87 640.641L1320.84 624.747Z" fill="#CF90A0"/>
<path d="M1297.6 633.566L1279.37 640.485L1285.4 656.379L1303.63 649.46L1297.6 633.566Z" fill="#CF90A0"/>
<path d="M1274.37 642.372L1256.13 649.292L1262.17 665.185L1280.4 658.266L1274.37 642.372Z" fill="#CF90A0"/>
<path d="M1251.12 651.204L1232.89 658.124L1238.92 674.017L1257.15 667.098L1251.12 651.204Z" fill="#CF90A0"/>
<path d="M1227.89 660.02L1209.66 666.939L1215.69 682.833L1233.92 675.914L1227.89 660.02Z" fill="#CF90A0"/>
<path d="M1204.65 668.839L1186.42 675.758L1192.45 691.652L1210.68 684.733L1204.65 668.839Z" fill="#CF90A0"/>
<path d="M1181.42 677.655L1163.19 684.574L1169.22 700.468L1187.45 693.549L1181.42 677.655Z" fill="#CF90A0"/>
<path d="M1158.18 686.483L1139.95 693.402L1145.98 709.296L1164.22 702.377L1158.18 686.483Z" fill="#CF90A0"/>
<path d="M1099.86 726.8L1141.78 710.893L1135.75 694.999L1093.83 710.906L1099.86 726.8Z" fill="#CF90A0"/>
<path d="M1375.34 628.309L1357.11 635.229L1363.14 651.122L1381.38 644.203L1375.34 628.309Z" fill="#CF90A0"/>
<path d="M1352.11 637.116L1333.88 644.035L1339.91 659.929L1358.14 653.01L1352.11 637.116Z" fill="#CF90A0"/>
<path d="M1328.87 645.935L1310.64 652.854L1316.67 668.748L1334.9 661.829L1328.87 645.935Z" fill="#CF90A0"/>
<path d="M1305.64 654.751L1287.41 661.67L1293.44 677.564L1311.67 670.645L1305.64 654.751Z" fill="#CF90A0"/>
<path d="M1282.41 663.576L1264.18 670.495L1270.21 686.389L1288.44 679.47L1282.41 663.576Z" fill="#CF90A0"/>
<path d="M1259.17 672.395L1240.94 679.314L1246.97 695.208L1265.2 688.289L1259.17 672.395Z" fill="#CF90A0"/>
<path d="M1235.94 681.211L1217.71 688.13L1223.74 704.024L1241.98 697.105L1235.94 681.211Z" fill="#CF90A0"/>
<path d="M1212.7 690.02L1194.47 696.939L1200.5 712.833L1218.73 705.914L1212.7 690.02Z" fill="#CF90A0"/>
<path d="M1189.47 698.846L1171.24 705.765L1177.27 721.658L1195.5 714.739L1189.47 698.846Z" fill="#CF90A0"/>
<path d="M1166.23 707.664L1148 714.583L1154.03 730.477L1172.27 723.558L1166.23 707.664Z" fill="#CF90A0"/>
<path d="M1107.9 747.988L1149.82 732.082L1143.78 716.188L1101.87 732.095L1107.9 747.988Z" fill="#CF90A0"/>
<path d="M1208.38 734.11L1296.83 700.543L1290.8 684.65L1202.35 718.216L1208.38 734.11Z" fill="#CF90A0"/>
<path d="M1185.13 742.932L1203.37 736.013L1197.33 720.119L1179.1 727.038L1185.13 742.932Z" fill="#CF90A0"/>
<path d="M1162.06 751.673L1180.29 744.754L1174.26 728.86L1156.03 735.779L1162.06 751.673Z" fill="#CF90A0"/>
<path d="M1138.69 760.546L1156.92 753.627L1150.89 737.733L1132.66 744.652L1138.69 760.546Z" fill="#CF90A0"/>
<path d="M1115.94 769.185L1134.17 762.266L1128.14 746.372L1109.91 753.291L1115.94 769.185Z" fill="#CF90A0"/>
<path d="M1371.19 672.33L1389.42 665.411L1383.39 649.517L1365.16 656.436L1371.19 672.33Z" fill="#CF90A0"/>
<path d="M1348.12 681.067L1366.35 674.148L1360.32 658.254L1342.09 665.173L1348.12 681.067Z" fill="#CF90A0"/>
<path d="M1324.74 689.944L1342.98 683.024L1336.94 667.131L1318.71 674.05L1324.74 689.944Z" fill="#CF90A0"/>
<path d="M1302 698.579L1320.23 691.66L1314.2 675.766L1295.97 682.685L1302 698.579Z" fill="#CF90A0"/>
<path d="M1095.47 668.718L1077.24 675.637L1080.96 685.454L1099.2 678.534L1095.47 668.718Z" fill="#F1F2F2"/>
<path d="M1118.68 659.909L1100.45 666.828L1104.18 676.645L1122.41 669.726L1118.68 659.909Z" fill="#F1F2F2"/>
<path d="M1141.88 651.117L1123.65 658.036L1127.37 667.853L1145.6 660.934L1141.88 651.117Z" fill="#F1F2F2"/>
<path d="M1165.09 642.299L1146.86 649.218L1150.58 659.035L1168.81 652.116L1165.09 642.299Z" fill="#F1F2F2"/>
<path d="M1188.29 633.494L1170.06 640.413L1173.78 650.23L1192.01 643.311L1188.29 633.494Z" fill="#F1F2F2"/>
<path d="M1211.49 624.689L1193.26 631.608L1196.99 641.425L1215.22 634.506L1211.49 624.689Z" fill="#F1F2F2"/>
<path d="M1234.69 615.884L1216.46 622.803L1220.19 632.62L1238.42 625.701L1234.69 615.884Z" fill="#F1F2F2"/>
<path d="M1257.91 607.076L1239.67 613.995L1243.4 623.811L1261.63 616.892L1257.91 607.076Z" fill="#F1F2F2"/>
<path d="M1281.1 598.274L1262.87 605.193L1266.59 615.01L1284.82 608.091L1281.1 598.274Z" fill="#F1F2F2"/>
<path d="M1304.31 589.466L1286.08 596.385L1289.8 606.202L1308.04 599.282L1304.31 589.466Z" fill="#F1F2F2"/>
<path d="M1327.51 580.66L1309.28 587.58L1313.01 597.396L1331.24 590.477L1327.51 580.66Z" fill="#F1F2F2"/>
<path d="M1350.7 571.849L1332.47 578.769L1336.2 588.585L1354.43 581.666L1350.7 571.849Z" fill="#F1F2F2"/>
<path d="M1101.21 683.837L1082.98 690.756L1089.01 706.65L1107.24 699.731L1101.21 683.837Z" fill="#F1F2F2"/>
<path d="M1124.45 675.018L1106.22 681.938L1112.25 697.831L1130.48 690.912L1124.45 675.018Z" fill="#F1F2F2"/>
<path d="M1147.67 666.193L1129.44 673.112L1135.48 689.006L1153.71 682.087L1147.67 666.193Z" fill="#F1F2F2"/>
<path d="M1170.91 657.374L1152.68 664.293L1158.71 680.187L1176.95 673.268L1170.91 657.374Z" fill="#F1F2F2"/>
<path d="M1194.14 648.558L1175.91 655.478L1181.95 671.371L1200.18 664.452L1194.14 648.558Z" fill="#F1F2F2"/>
<path d="M1217.38 639.752L1199.15 646.671L1205.18 662.565L1223.41 655.646L1217.38 639.752Z" fill="#F1F2F2"/>
<path d="M1240.62 630.933L1222.39 637.852L1228.42 653.746L1246.65 646.827L1240.62 630.933Z" fill="#F1F2F2"/>
<path d="M1263.85 622.108L1245.61 629.027L1251.65 644.921L1269.88 638.002L1263.85 622.108Z" fill="#F1F2F2"/>
<path d="M1287.08 613.289L1268.85 620.208L1274.89 636.102L1293.12 629.183L1287.08 613.289Z" fill="#F1F2F2"/>
<path d="M1310.32 604.47L1292.09 611.389L1298.12 627.283L1316.36 620.363L1310.32 604.47Z" fill="#F1F2F2"/>
<path d="M1356.45 586.965L1314.54 602.872L1320.57 618.766L1362.48 602.859L1356.45 586.965Z" fill="#F1F2F2"/>
<path d="M1364.49 608.151L1346.26 615.07L1352.29 630.964L1370.52 624.045L1364.49 608.151Z" fill="#F1F2F2"/>
<path d="M1341.26 616.976L1323.03 623.895L1329.06 639.789L1347.29 632.87L1341.26 616.976Z" fill="#F1F2F2"/>
<path d="M1318.02 625.795L1299.79 632.714L1305.82 648.608L1324.05 641.689L1318.02 625.795Z" fill="#F1F2F2"/>
<path d="M1294.79 634.611L1276.56 641.53L1282.59 657.424L1300.82 650.505L1294.79 634.611Z" fill="#F1F2F2"/>
<path d="M1271.55 643.43L1253.32 650.349L1259.35 666.242L1277.58 659.323L1271.55 643.43Z" fill="#F1F2F2"/>
<path d="M1248.32 652.255L1230.09 659.174L1236.13 675.068L1254.36 668.149L1248.32 652.255Z" fill="#F1F2F2"/>
<path d="M1225.08 661.064L1206.85 667.983L1212.88 683.877L1231.11 676.958L1225.08 661.064Z" fill="#F1F2F2"/>
<path d="M1201.85 669.88L1183.62 676.799L1189.65 692.693L1207.88 685.774L1201.85 669.88Z" fill="#F1F2F2"/>
<path d="M1178.6 678.703L1160.37 685.622L1166.4 701.516L1184.63 694.597L1178.6 678.703Z" fill="#F1F2F2"/>
<path d="M1155.37 687.528L1137.14 694.447L1143.18 710.341L1161.41 703.422L1155.37 687.528Z" fill="#F1F2F2"/>
<path d="M1097.05 727.844L1138.96 711.937L1132.93 696.043L1091.02 711.95L1097.05 727.844Z" fill="#F1F2F2"/>
<path d="M1372.53 629.354L1354.3 636.273L1360.34 652.167L1378.57 645.248L1372.53 629.354Z" fill="#F1F2F2"/>
<path d="M1349.3 638.17L1331.07 645.089L1337.11 660.983L1355.34 654.064L1349.3 638.17Z" fill="#F1F2F2"/>
<path d="M1326.06 646.989L1307.83 653.908L1313.87 669.802L1332.1 662.883L1326.06 646.989Z" fill="#F1F2F2"/>
<path d="M1302.83 655.805L1284.6 662.724L1290.64 678.617L1308.87 671.698L1302.83 655.805Z" fill="#F1F2F2"/>
<path d="M1279.59 664.614L1261.36 671.533L1267.39 687.427L1285.62 680.508L1279.59 664.614Z" fill="#F1F2F2"/>
<path d="M1256.36 673.439L1238.13 680.358L1244.16 696.252L1262.4 689.333L1256.36 673.439Z" fill="#F1F2F2"/>
<path d="M1233.12 682.259L1214.89 689.178L1220.93 705.072L1239.16 698.152L1233.12 682.259Z" fill="#F1F2F2"/>
<path d="M1209.89 691.074L1191.66 697.993L1197.7 713.887L1215.93 706.968L1209.89 691.074Z" fill="#F1F2F2"/>
<path d="M1186.65 699.893L1168.42 706.812L1174.45 722.706L1192.69 715.787L1186.65 699.893Z" fill="#F1F2F2"/>
<path d="M1163.43 708.719L1145.2 715.638L1151.23 731.532L1169.46 724.612L1163.43 708.719Z" fill="#F1F2F2"/>
<path d="M1105.1 749.039L1147.01 733.132L1140.98 717.238L1099.07 733.145L1105.1 749.039Z" fill="#F1F2F2"/>
<path d="M1205.58 735.151L1294.02 701.584L1287.99 685.691L1199.54 719.257L1205.58 735.151Z" fill="#F1F2F2"/>
<path d="M1182.32 743.977L1200.55 737.058L1194.52 721.164L1176.29 728.083L1182.32 743.977Z" fill="#F1F2F2"/>
<path d="M1159.25 752.723L1177.49 745.804L1171.45 729.91L1153.22 736.829L1159.25 752.723Z" fill="#F1F2F2"/>
<path d="M1135.89 761.596L1154.12 754.677L1148.09 738.783L1129.85 745.703L1135.89 761.596Z" fill="#F1F2F2"/>
<path d="M1113.13 770.226L1131.36 763.307L1125.33 747.413L1107.1 754.332L1113.13 770.226Z" fill="#F1F2F2"/>
<path d="M1368.37 673.374L1386.6 666.455L1380.57 650.561L1362.34 657.48L1368.37 673.374Z" fill="#F1F2F2"/>
<path d="M1345.31 682.121L1363.54 675.202L1357.51 659.308L1339.28 666.227L1345.31 682.121Z" fill="#F1F2F2"/>
<path d="M1321.93 690.997L1340.16 684.078L1334.13 668.184L1315.9 675.103L1321.93 690.997Z" fill="#F1F2F2"/>
<path d="M1299.19 699.632L1317.42 692.713L1311.39 676.82L1293.16 683.739L1299.19 699.632Z" fill="#F1F2F2"/>
<path d="M1355.4 550.646C1351.54 547.239 1345.97 546.029 1340.83 547.983L1069.07 651.113C1064.66 652.781 1061.58 656.406 1060.38 660.615L1355.4 550.655L1355.4 550.646Z" fill="#C27387"/>
<path d="M332.845 752.17C331.2 749.87 329.583 747.568 327.891 745.319C328.121 744.864 328.337 744.41 328.546 743.935C328.987 742.885 329.314 741.825 329.542 740.769C335.27 735.292 338.881 736.824 338.881 736.824L340.812 732.193C314.139 703.848 286.604 709.544 286.604 709.544C279.319 700.766 267.281 701.474 267.281 701.474C264.174 697.942 260.954 694.973 257.723 692.471C254.801 689.71 251.339 687.444 247.671 685.915C247.153 685.694 246.622 685.502 246.091 685.31C229.53 677.467 215.216 679.734 215.216 679.734L212.481 686.293C215.169 687.188 215.836 689.455 215.792 691.622C214.835 692.875 214.011 694.266 213.363 695.819C213 696.696 212.709 697.585 212.488 698.485C210.519 698.787 208.549 699.103 206.566 699.419L197.716 700.954L200.512 709.473C201.719 708.861 203.062 708.264 204.372 707.719C205.687 707.152 207.019 706.627 208.351 706.13C209.565 705.659 210.787 705.237 212.016 704.822C212.896 714.851 220.979 724.696 230.493 728.669C244.106 734.354 259.793 729.146 264.745 717.295C265.594 715.26 266.053 713.204 266.173 711.162L274.404 714.519L280.497 717.123C279.126 718.648 277.977 720.418 277.121 722.461C271.89 734.981 281.86 750.131 294.265 755.31C305.109 759.834 317.253 757.452 324.261 750.312C325.149 752.061 326.016 753.819 326.799 755.607C327.387 756.915 327.947 758.224 328.472 759.555C329.003 760.865 329.516 762.24 329.94 763.533L337.96 759.539L332.823 752.164L332.845 752.17ZM311.991 727.947C310.936 727.202 309.799 726.517 308.506 726.028L300.408 722.807C295.406 720.805 290.392 718.846 285.396 716.808C292.008 712.083 302.165 711.963 310.292 715.36C318.303 718.704 325.264 725.861 326.698 733.76C321.778 731.86 316.878 729.925 311.991 727.961L311.991 727.947ZM326.961 736.934C326.927 738.81 326.568 740.699 325.812 742.575C324.62 741.021 323.408 739.49 322.154 737.974C320.655 736.163 319.094 734.39 317.43 732.685C320.618 734.084 323.793 735.498 326.954 736.927L326.961 736.934ZM283.13 714.723C282.807 714.969 282.484 715.229 282.183 715.495L275.21 712.648L266.21 708.797C266.21 708.797 266.203 708.79 266.195 708.783C266.165 708.36 266.12 707.937 266.062 707.515C273.13 705.461 279.922 709.312 283.144 714.722L283.13 714.723ZM216.153 696.986C216.957 695.073 218.062 693.438 219.404 692.064C223.375 693.575 227.319 695.115 231.263 696.683C228.886 696.689 226.521 696.829 224.179 697.032C221.358 697.282 218.561 697.594 215.775 698.012C215.889 697.668 216.017 697.324 216.167 696.985L216.153 696.986ZM250.256 701.843L242.274 698.349C241.014 697.782 239.735 697.456 238.46 697.228C232.941 694.843 227.441 692.407 221.961 689.921C228.582 685.436 238.529 685.366 246.519 688.704C254.637 692.094 261.667 699.383 262.979 707.399C258.734 705.566 254.501 703.69 250.263 701.85L250.256 701.843ZM231.674 725.878C222.85 722.19 215.35 712.981 214.966 703.874C215.47 703.713 215.98 703.545 216.49 703.391C221.964 701.837 227.575 700.518 233.148 700.255C234.54 700.195 235.92 700.192 237.269 700.324C238.611 700.449 239.936 700.682 241.086 701.147L249.155 704.341C253.841 706.214 258.525 708.058 263.197 709.945C263.205 711.997 262.824 714.071 261.968 716.113C257.723 726.275 243.568 730.829 231.673 725.864L231.674 725.878ZM295.446 752.52C284.357 747.892 275.369 734.55 279.925 723.627C280.781 721.571 281.995 719.833 283.476 718.396C288.806 720.662 294.097 723.028 299.408 725.344L307.354 728.832C308.491 729.326 309.59 730.112 310.62 730.972C311.665 731.83 312.63 732.819 313.568 733.852C317.19 737.874 320.11 742.609 322.785 747.432C316.761 754.201 305.32 756.649 295.446 752.52Z" fill="#EB7267" fill-opacity="0.5"/>
<path d="M283.1 706.19C275.815 697.411 263.777 698.12 263.777 698.12C240.598 671.771 211.712 676.366 211.712 676.366L208.977 682.924C214.732 684.834 211.247 693.041 211.247 693.041C215.972 681.729 231.236 678.788 243.591 683.948C252.839 687.811 260.011 696.035 261.042 704.678C269.235 701.322 277.357 706.254 280.365 712.748C287.23 707.412 298.115 706.726 307.37 710.596C319.725 715.756 328.358 728.686 323.632 739.998C330.723 731.504 335.37 733.477 335.37 733.477L337.301 728.846C310.628 700.501 283.093 706.197 283.093 706.197L283.1 706.19Z" fill="#654659"/>
<path d="M194.211 697.585L203.062 696.05C205.987 695.584 208.905 695.084 211.834 694.702C214.754 694.258 217.699 693.933 220.654 693.671C223.609 693.41 226.589 693.253 229.607 693.336C231.115 693.37 232.634 693.481 234.165 693.727C235.695 693.959 237.244 694.303 238.763 694.987L246.744 698.482C252.055 700.798 257.347 703.164 262.677 705.429L278.662 712.261C284.012 714.491 289.343 716.77 294.713 718.963C305.433 723.386 316.178 727.723 327.021 731.85L325.862 734.647C315.297 729.837 304.648 725.235 293.974 720.718C288.636 718.446 283.266 716.253 277.923 714.016L261.806 707.444C256.443 705.243 251.027 703.144 245.644 700.979L237.575 697.786C236.418 697.328 235.093 697.095 233.758 696.962C232.415 696.823 231.029 696.833 229.637 696.894C224.056 697.15 218.453 698.475 212.979 700.03C210.252 700.87 207.525 701.739 204.854 702.768C203.515 703.272 202.184 703.797 200.875 704.357C199.565 704.902 198.23 705.505 197.014 706.111L194.219 697.592L194.211 697.585Z" fill="#654659"/>
<path d="M326.443 760.171C326.026 758.885 325.513 757.51 324.975 756.194C324.45 754.862 323.89 753.553 323.302 752.245C322.161 749.621 320.854 747.074 319.533 744.542C316.787 739.559 313.79 734.643 310.057 730.491C309.119 729.458 308.154 728.469 307.109 727.61C306.071 726.744 304.973 725.973 303.843 725.471L295.897 721.982C290.572 719.667 285.281 717.301 279.943 715.029L263.943 708.183C258.593 705.954 253.262 703.674 247.892 701.481C237.172 697.058 226.42 692.715 215.569 688.58L216.744 685.797C227.295 690.608 237.936 695.203 248.61 699.72C253.948 701.992 259.304 704.186 264.661 706.422L280.756 712.988C286.12 715.189 291.521 717.289 296.904 719.439L305.002 722.66C306.561 723.258 307.889 724.12 309.127 725.035C310.372 725.957 311.521 726.953 312.608 728.001C314.79 730.09 316.772 732.321 318.664 734.605C320.556 736.889 322.393 739.217 324.133 741.606C325.929 743.965 327.613 746.384 329.341 748.802L334.477 756.176L326.457 760.17L326.443 760.171Z" fill="#654659"/>
<path opacity="0.5" d="M323.632 739.983C318.906 751.295 303.713 755.705 291.358 750.546C279.004 745.386 270.3 730.987 275.026 719.675C279.751 708.363 295.015 705.422 307.37 710.582C319.724 715.741 328.357 728.671 323.632 739.983Z" fill="#E1A6AB"/>
<path opacity="0.5" d="M259.86 713.342C255.134 724.654 239.941 729.064 227.586 723.905C215.232 718.745 206.528 704.346 211.254 693.034C215.979 681.722 231.243 678.781 243.598 683.94C255.952 689.1 264.585 702.03 259.86 713.342Z" fill="#E1A6AB"/>
<path d="M290.775 751.941C278.37 746.762 268.4 731.612 273.631 719.091C278.952 706.341 295.591 704.02 307.953 709.187C320.315 714.353 330.355 727.81 325.034 740.56C320.081 752.411 304.395 757.618 290.782 751.934L290.775 751.941ZM306.786 711.977C295.769 707.375 281.03 709.234 276.421 720.258C271.857 731.175 280.853 744.523 291.942 749.151C303.836 754.116 317.991 749.561 322.237 739.4C326.846 728.376 317.803 716.579 306.786 711.977Z" fill="#654659"/>
<path d="M226.996 725.307C214.591 720.128 204.62 704.978 209.852 692.457C215.173 679.708 231.812 677.386 244.174 682.553C256.536 687.719 266.576 701.176 261.248 713.933C256.295 725.784 240.616 730.998 226.996 725.307ZM243.007 685.343C231.99 680.741 217.251 682.6 212.642 693.624C208.078 704.541 217.074 717.889 228.163 722.517C240.057 727.482 254.212 722.927 258.458 712.766C263.067 701.742 254.024 689.945 243.007 685.343Z" fill="#654659"/>
<path opacity="0.53" d="M238.745 685.402L233.665 686.876L243.406 720.442L248.486 718.967L238.745 685.402Z" fill="white"/>
<path opacity="0.53" d="M228.515 687.221L225.614 688.062L235.355 721.628L238.255 720.786L228.515 687.221Z" fill="white"/>
<path d="M380.12 595.99C378.36 593.52 374.92 592.94 372.45 594.7L358.44 604.67C349.87 593.33 336.27 586 320.96 586C295.02 586 274 607.03 274 632.96C274 658.89 295.03 679.92 320.96 679.92C346.89 679.92 367.92 658.89 367.92 632.96C367.92 626.26 366.51 619.9 363.98 614.14C364.22 614.02 364.45 613.88 364.67 613.73L378.82 603.66C381.29 601.9 381.87 598.46 380.11 595.99H380.12Z" fill="#EB7267" fill-opacity="0.5"/>
<path d="M373.12 595.99C371.36 593.52 367.92 592.94 365.45 594.7L351.44 604.67C342.87 593.33 329.27 586 313.96 586C288.02 586 267 607.03 267 632.96C267 658.89 288.03 679.92 313.96 679.92C339.89 679.92 360.92 658.89 360.92 632.96C360.92 626.26 359.51 619.9 356.98 614.14C357.22 614.02 357.45 613.88 357.67 613.73L371.82 603.66C374.29 601.9 374.87 598.46 373.11 595.99H373.12Z" fill="#F6E4E6"/>
<path d="M313.95 669.93C293.57 669.93 276.99 653.35 276.99 632.97C276.99 612.59 293.57 596.01 313.95 596.01C334.33 596.01 350.91 612.59 350.91 632.97C350.91 653.35 334.33 669.93 313.95 669.93Z" fill="#785C6C"/>
<path d="M297.35 630.63C297.35 615.29 306.75 602.1 320.09 596.52C318.09 596.19 316.05 596 313.96 596C293.58 596 277 612.58 277 632.96C277 653.34 293.58 669.92 313.96 669.92C319 669.92 323.81 668.9 328.19 667.07C310.72 664.14 297.36 648.92 297.36 630.62L297.35 630.63Z" fill="#59384B"/>
<path d="M327.72 627.3C332.072 627.3 335.6 625.138 335.6 622.47C335.6 619.803 332.072 617.64 327.72 617.64C323.368 617.64 319.84 619.803 319.84 622.47C319.84 625.138 323.368 627.3 327.72 627.3Z" fill="#D3CACF"/>
<path d="M1061.76 194.89L1018.96 204.481C1013.36 205.734 1009.84 211.285 1011.1 216.879L1029.9 300.818C1031.15 306.412 1036.7 309.931 1042.3 308.678L1085.11 299.087C1090.7 297.834 1094.22 292.283 1092.97 286.689L1074.16 202.75C1072.91 197.156 1067.36 193.637 1061.76 194.89Z" fill="#F4DFE1"/>
<path d="M1068.95 207.334L1017.77 218.801L1034.2 292.133L1085.38 280.667L1068.95 207.334Z" fill="#F1F2F2"/>
<path d="M1049.42 203.236L1033.72 206.752C1032.67 206.992 1032.01 208.031 1032.25 209.083C1032.49 210.134 1033.53 210.798 1034.58 210.559L1050.27 207.043C1051.33 206.803 1051.99 205.763 1051.75 204.712C1051.51 203.661 1050.47 202.996 1049.42 203.236Z" fill="#C27387"/>
<path d="M1065.85 294.121C1065.34 291.858 1063.09 290.435 1060.84 290.945C1058.58 291.455 1057.15 293.699 1057.66 295.955C1058.17 298.212 1060.41 299.64 1062.67 299.131C1064.93 298.621 1066.36 296.377 1065.85 294.121Z" fill="#C27387"/>
<path opacity="0.4" d="M1044.99 212.689L1034.21 292.12L1060.96 286.133L1068.97 207.316L1044.99 212.689Z" fill="white"/>
<path d="M218.337 640.415L216.668 647.091" stroke="#EF889F" stroke-miterlimit="10"/>
<path d="M214.169 642.923L220.845 644.592" stroke="#EF889F" stroke-miterlimit="10"/>
<path d="M190.561 675.103C189.771 667.334 193.413 659.444 200.551 655.169C205.472 652.217 211.122 651.544 216.285 652.829" stroke="#EF889F" stroke-miterlimit="10"/>
<path d="M164.054 252.418C161.864 243.616 162.049 234.515 164.363 226" stroke="#EF889F" stroke-miterlimit="10"/>
<path d="M168.3 217.6C170.675 217.6 172.6 215.675 172.6 213.3C172.6 210.925 170.675 209 168.3 209C165.925 209 164 210.925 164 213.3C164 215.675 165.925 217.6 168.3 217.6Z" stroke="#EF889F" stroke-miterlimit="10"/>
<path d="M169.67 114V123.34" stroke="#EF889F" stroke-miterlimit="10"/>
<path d="M165 118.67H174.34" stroke="#EF889F" stroke-miterlimit="10"/>
<path d="M166.37 115.37L172.97 121.97" stroke="#EF889F" stroke-miterlimit="10"/>
<path d="M166.37 121.97L172.97 115.37" stroke="#EF889F" stroke-miterlimit="10"/>
<path d="M1104.67 301V310.34" stroke="#EF889F" stroke-miterlimit="10"/>
<path d="M1100 305.67H1109.34" stroke="#EF889F" stroke-miterlimit="10"/>
<path d="M1101.37 302.37L1107.97 308.97" stroke="#EF889F" stroke-miterlimit="10"/>
<path d="M1101.37 308.97L1107.97 302.37" stroke="#EF889F" stroke-miterlimit="10"/>
<path d="M362.88 678C356.43 684.94 347.77 688.6 339 688.92" stroke="#EF889F" stroke-miterlimit="10"/>
<path d="M371.73 692.77C371.73 694.9 370.01 696.62 367.88 696.62C365.75 696.62 364.03 694.9 364.03 692.77C364.03 690.64 365.75 688.92 367.88 688.92C370.01 688.92 371.73 690.64 371.73 692.77Z" stroke="#EF889F" stroke-miterlimit="10"/>
<path d="M1089 776L1093.87 780.87" stroke="#EF889F" stroke-miterlimit="10"/>
<path d="M1089 780.87L1093.87 776" stroke="#EF889F" stroke-miterlimit="10"/>
<path d="M1014.4 180.792L1015.35 187.608" stroke="#EF889F" stroke-miterlimit="10"/>
<path d="M1011.47 184.676L1018.29 183.73" stroke="#EF889F" stroke-miterlimit="10"/>
<path d="M1001.6 223.346C997.964 216.436 998.394 207.756 1003.42 201.124C1006.88 196.547 1011.87 193.811 1017.14 193.074" stroke="#EF889F" stroke-miterlimit="10"/>
<path d="M1353.19 531.614C1362.36 534.007 1369.69 539.9 1374.12 547.472" stroke="#EF889F" stroke-miterlimit="10"/>
<path d="M1362.01 516.824C1363.88 515.815 1366.21 516.515 1367.22 518.391C1368.23 520.267 1367.53 522.596 1365.66 523.605C1363.78 524.614 1361.45 523.914 1360.44 522.038C1359.43 520.162 1360.13 517.833 1362.01 516.824Z" stroke="#EF889F" stroke-miterlimit="10"/>
</svg>
