<svg width="390" height="798" viewBox="0 0 390 798" fill="none" xmlns="http://www.w3.org/2000/svg">
<g clip-path="url(#clip0_809_2)">
<rect width="390" height="798" fill="white"/>
<rect width="390" height="844" fill="#FAF6EA"/>
<path d="M351.723 697.857L167.307 767.842C162.286 769.746 156.669 767.219 154.765 762.197L129.085 694.519C127.18 689.497 129.708 683.881 134.729 681.976L319.144 611.991C324.166 610.087 329.783 612.614 331.687 617.636L357.367 685.314C359.272 690.336 356.744 695.952 351.723 697.857Z" fill="#EB7267" fill-opacity="0.5"/>
<path d="M347.906 699.281L163.491 769.265C158.47 771.17 152.853 768.643 150.948 763.621L125.268 695.943C123.364 690.921 125.891 685.304 130.913 683.4L315.328 613.415C320.349 611.511 325.966 614.038 327.871 619.059L353.551 686.738C355.455 691.759 352.928 697.376 347.906 699.281Z" fill="#E1A6AB"/>
<path d="M150.733 694.637L138.361 699.333L140.89 705.994L153.261 701.299L150.733 694.637Z" fill="#CF90A0"/>
<path d="M166.479 688.662L154.107 693.357L156.636 700.019L169.008 695.324L166.479 688.662Z" fill="#CF90A0"/>
<path d="M182.224 682.687L169.853 687.382L172.381 694.044L184.753 689.349L182.224 682.687Z" fill="#CF90A0"/>
<path d="M197.968 676.705L185.596 681.4L188.124 688.062L200.496 683.367L197.968 676.705Z" fill="#CF90A0"/>
<path d="M213.721 670.734L201.35 675.43L203.878 682.091L216.25 677.396L213.721 670.734Z" fill="#CF90A0"/>
<path d="M229.461 664.761L217.089 669.457L219.617 676.118L231.989 671.423L229.461 664.761Z" fill="#CF90A0"/>
<path d="M245.204 658.78L232.832 663.475L235.36 670.137L247.732 665.441L245.204 658.78Z" fill="#CF90A0"/>
<path d="M260.958 652.809L248.586 657.504L251.114 664.166L263.486 659.47L260.958 652.809Z" fill="#CF90A0"/>
<path d="M276.697 646.836L264.325 651.531L266.853 658.193L279.225 653.498L276.697 646.836Z" fill="#CF90A0"/>
<path d="M292.446 640.852L280.074 645.547L282.602 652.209L294.974 647.514L292.446 640.852Z" fill="#CF90A0"/>
<path d="M308.191 634.876L295.819 639.572L298.348 646.234L310.719 641.538L308.191 634.876Z" fill="#CF90A0"/>
<path d="M323.939 628.908L311.567 633.604L314.096 640.265L326.468 635.57L323.939 628.908Z" fill="#CF90A0"/>
<path d="M154.618 704.894L142.246 709.589L146.339 720.375L158.711 715.68L154.618 704.894Z" fill="#CF90A0"/>
<path d="M170.391 698.915L158.02 703.611L162.113 714.397L174.485 709.701L170.391 698.915Z" fill="#CF90A0"/>
<path d="M186.156 692.933L173.784 697.628L177.878 708.414L190.249 703.719L186.156 692.933Z" fill="#CF90A0"/>
<path d="M201.925 686.942L189.553 691.637L193.646 702.423L206.018 697.728L201.925 686.942Z" fill="#CF90A0"/>
<path d="M217.688 680.959L205.316 685.655L209.41 696.441L221.782 691.745L217.688 680.959Z" fill="#CF90A0"/>
<path d="M233.459 674.975L221.087 679.67L225.18 690.456L237.552 685.761L233.459 674.975Z" fill="#CF90A0"/>
<path d="M249.223 668.993L236.852 673.688L240.945 684.474L253.317 679.778L249.223 668.993Z" fill="#CF90A0"/>
<path d="M264.994 663.008L252.622 667.703L256.715 678.489L269.087 673.793L264.994 663.008Z" fill="#CF90A0"/>
<path d="M280.759 657.025L268.387 661.721L272.48 672.506L284.852 667.811L280.759 657.025Z" fill="#CF90A0"/>
<path d="M296.529 651.04L284.157 655.736L288.251 666.522L300.622 661.826L296.529 651.04Z" fill="#CF90A0"/>
<path d="M327.83 639.162L299.388 649.956L303.481 660.742L331.924 649.947L327.83 639.162Z" fill="#CF90A0"/>
<path d="M333.296 653.543L320.924 658.238L325.017 669.024L337.389 664.329L333.296 653.543Z" fill="#CF90A0"/>
<path d="M317.525 659.527L305.153 664.223L309.247 675.008L321.619 670.313L317.525 659.527Z" fill="#CF90A0"/>
<path d="M301.761 665.51L289.389 670.205L293.482 680.991L305.854 676.295L301.761 665.51Z" fill="#CF90A0"/>
<path d="M285.989 671.495L273.617 676.19L277.711 686.976L290.082 682.281L285.989 671.495Z" fill="#CF90A0"/>
<path d="M270.223 677.471L257.852 682.166L261.945 692.952L274.317 688.256L270.223 677.471Z" fill="#CF90A0"/>
<path d="M254.448 683.464L242.076 688.16L246.17 698.945L258.541 694.25L254.448 683.464Z" fill="#CF90A0"/>
<path d="M238.683 689.447L226.312 694.142L230.405 704.928L242.777 700.232L238.683 689.447Z" fill="#CF90A0"/>
<path d="M222.913 695.432L210.541 700.127L214.634 710.913L227.006 706.217L222.913 695.432Z" fill="#CF90A0"/>
<path d="M207.149 701.414L194.777 706.109L198.871 716.895L211.243 712.2L207.149 701.414Z" fill="#CF90A0"/>
<path d="M191.381 707.405L179.009 712.1L183.102 722.886L195.474 718.19L191.381 707.405Z" fill="#CF90A0"/>
<path d="M151.803 734.764L180.245 723.969L176.152 713.184L147.709 723.978L151.803 734.764Z" fill="#CF90A0"/>
<path d="M338.746 667.927L326.374 672.623L330.467 683.408L342.839 678.713L338.746 667.927Z" fill="#CF90A0"/>
<path d="M322.98 673.903L310.608 678.599L314.702 689.384L327.074 684.689L322.98 673.903Z" fill="#CF90A0"/>
<path d="M307.209 679.888L294.837 684.583L298.93 695.369L311.302 690.674L307.209 679.888Z" fill="#CF90A0"/>
<path d="M291.444 685.871L279.072 690.566L283.166 701.352L295.538 696.656L291.444 685.871Z" fill="#CF90A0"/>
<path d="M275.682 691.859L263.311 696.555L267.404 707.34L279.776 702.645L275.682 691.859Z" fill="#CF90A0"/>
<path d="M259.912 697.844L247.54 702.54L251.633 713.325L264.005 708.63L259.912 697.844Z" fill="#CF90A0"/>
<path d="M244.148 703.827L231.776 708.522L235.87 719.308L248.242 714.612L244.148 703.827Z" fill="#CF90A0"/>
<path d="M228.375 709.805L216.003 714.5L220.096 725.286L232.468 720.59L228.375 709.805Z" fill="#CF90A0"/>
<path d="M212.612 715.794L200.24 720.489L204.334 731.275L216.706 726.58L212.612 715.794Z" fill="#CF90A0"/>
<path d="M196.842 721.778L184.47 726.474L188.563 737.259L200.935 732.564L196.842 721.778Z" fill="#CF90A0"/>
<path d="M157.258 749.143L185.7 738.348L181.607 727.562L153.164 738.357L157.258 749.143Z" fill="#CF90A0"/>
<path d="M225.444 739.725L285.464 716.946L281.37 706.161L221.351 728.939L225.444 739.725Z" fill="#CF90A0"/>
<path d="M209.668 745.711L222.04 741.016L217.947 730.23L205.575 734.926L209.668 745.711Z" fill="#CF90A0"/>
<path d="M194.008 751.643L206.38 746.948L202.286 736.162L189.915 740.857L194.008 751.643Z" fill="#CF90A0"/>
<path d="M178.151 757.665L190.522 752.969L186.429 742.184L174.057 746.879L178.151 757.665Z" fill="#CF90A0"/>
<path d="M162.711 763.527L175.083 758.832L170.99 748.046L158.618 752.741L162.711 763.527Z" fill="#CF90A0"/>
<path d="M335.927 697.8L348.299 693.104L344.205 682.319L331.834 687.014L335.927 697.8Z" fill="#CF90A0"/>
<path d="M320.274 703.729L332.646 699.034L328.552 688.248L316.18 692.943L320.274 703.729Z" fill="#CF90A0"/>
<path d="M304.408 709.753L316.78 705.058L312.687 694.272L300.315 698.967L304.408 709.753Z" fill="#CF90A0"/>
<path d="M288.977 715.613L301.349 710.918L297.255 700.132L284.883 704.828L288.977 715.613Z" fill="#CF90A0"/>
<path d="M148.821 695.349L136.449 700.044L138.977 706.706L151.349 702.011L148.821 695.349Z" fill="#F1F2F2"/>
<path d="M164.572 689.371L152.2 694.066L154.728 700.728L167.1 696.033L164.572 689.371Z" fill="#F1F2F2"/>
<path d="M180.313 683.405L167.941 688.1L170.47 694.762L182.842 690.066L180.313 683.405Z" fill="#F1F2F2"/>
<path d="M196.063 677.421L183.691 682.116L186.22 688.778L198.592 684.083L196.063 677.421Z" fill="#F1F2F2"/>
<path d="M211.808 671.446L199.437 676.141L201.965 682.803L214.337 678.108L211.808 671.446Z" fill="#F1F2F2"/>
<path d="M227.554 665.471L215.182 670.166L217.71 676.828L230.082 672.132L227.554 665.471Z" fill="#F1F2F2"/>
<path d="M243.299 659.496L230.927 664.191L233.455 670.853L245.827 666.157L243.299 659.496Z" fill="#F1F2F2"/>
<path d="M259.051 653.518L246.679 658.213L249.207 664.875L261.579 660.18L259.051 653.518Z" fill="#F1F2F2"/>
<path d="M274.79 647.545L262.418 652.241L264.946 658.902L277.318 654.207L274.79 647.545Z" fill="#F1F2F2"/>
<path d="M290.542 641.568L278.17 646.263L280.698 652.925L293.07 648.23L290.542 641.568Z" fill="#F1F2F2"/>
<path d="M306.287 635.592L293.915 640.288L296.443 646.949L308.815 642.254L306.287 635.592Z" fill="#F1F2F2"/>
<path d="M322.023 629.613L309.651 634.309L312.18 640.97L324.552 636.275L322.023 629.613Z" fill="#F1F2F2"/>
<path d="M152.715 705.609L140.343 710.305L144.436 721.09L156.808 716.395L152.715 705.609Z" fill="#F1F2F2"/>
<path d="M168.485 699.624L156.113 704.32L160.207 715.106L172.579 710.41L168.485 699.624Z" fill="#F1F2F2"/>
<path d="M184.247 693.636L171.875 698.331L175.968 709.117L188.34 704.421L184.247 693.636Z" fill="#F1F2F2"/>
<path d="M200.017 687.651L187.646 692.347L191.739 703.132L204.111 698.437L200.017 687.651Z" fill="#F1F2F2"/>
<path d="M215.782 681.668L203.41 686.364L207.504 697.149L219.875 692.454L215.782 681.668Z" fill="#F1F2F2"/>
<path d="M231.55 675.692L219.178 680.388L223.271 691.173L235.643 686.478L231.55 675.692Z" fill="#F1F2F2"/>
<path d="M247.319 669.708L234.947 674.403L239.041 685.189L251.413 680.494L247.319 669.708Z" fill="#F1F2F2"/>
<path d="M263.082 663.719L250.71 668.414L254.803 679.2L267.175 674.504L263.082 663.719Z" fill="#F1F2F2"/>
<path d="M278.852 657.734L266.48 662.43L270.574 673.215L282.946 668.52L278.852 657.734Z" fill="#F1F2F2"/>
<path d="M294.623 651.749L282.251 656.445L286.344 667.231L298.716 662.535L294.623 651.749Z" fill="#F1F2F2"/>
<path d="M325.924 639.871L297.481 650.666L301.575 661.451L330.017 650.657L325.924 639.871Z" fill="#F1F2F2"/>
<path d="M331.379 654.247L319.007 658.942L323.1 669.728L335.472 665.033L331.379 654.247Z" fill="#F1F2F2"/>
<path d="M315.617 660.236L303.245 664.932L307.339 675.717L319.71 671.022L315.617 660.236Z" fill="#F1F2F2"/>
<path d="M299.845 666.221L287.474 670.916L291.567 681.702L303.939 677.006L299.845 666.221Z" fill="#F1F2F2"/>
<path d="M284.082 672.203L271.71 676.898L275.803 687.684L288.175 682.989L284.082 672.203Z" fill="#F1F2F2"/>
<path d="M268.311 678.188L255.939 682.883L260.033 693.669L272.405 688.974L268.311 678.188Z" fill="#F1F2F2"/>
<path d="M252.55 684.177L240.178 688.872L244.271 699.658L256.643 694.962L252.55 684.177Z" fill="#F1F2F2"/>
<path d="M236.776 690.155L224.404 694.85L228.498 705.636L240.87 700.94L236.776 690.155Z" fill="#F1F2F2"/>
<path d="M221.012 696.138L208.64 700.833L212.733 711.619L225.105 706.923L221.012 696.138Z" fill="#F1F2F2"/>
<path d="M205.235 702.124L192.863 706.82L196.957 717.606L209.329 712.91L205.235 702.124Z" fill="#F1F2F2"/>
<path d="M189.472 708.114L177.101 712.809L181.194 723.595L193.566 718.899L189.472 708.114Z" fill="#F1F2F2"/>
<path d="M149.891 735.472L178.334 724.678L174.241 713.892L145.798 724.687L149.891 735.472Z" fill="#F1F2F2"/>
<path d="M336.841 668.637L324.469 673.332L328.562 684.118L340.934 679.422L336.841 668.637Z" fill="#F1F2F2"/>
<path d="M321.076 674.619L308.704 679.314L312.798 690.1L325.169 685.405L321.076 674.619Z" fill="#F1F2F2"/>
<path d="M305.304 680.604L292.933 685.299L297.026 696.085L309.398 691.39L305.304 680.604Z" fill="#F1F2F2"/>
<path d="M289.541 686.586L277.169 691.282L281.262 702.067L293.634 697.372L289.541 686.586Z" fill="#F1F2F2"/>
<path d="M273.768 692.564L261.396 697.26L265.49 708.045L277.862 703.35L273.768 692.564Z" fill="#F1F2F2"/>
<path d="M258.006 698.553L245.634 703.249L249.727 714.034L262.099 709.339L258.006 698.553Z" fill="#F1F2F2"/>
<path d="M242.235 704.538L229.863 709.233L233.957 720.019L246.329 715.324L242.235 704.538Z" fill="#F1F2F2"/>
<path d="M226.47 710.52L214.099 715.216L218.192 726.002L230.564 721.306L226.47 710.52Z" fill="#F1F2F2"/>
<path d="M210.7 716.505L198.328 721.201L202.422 731.986L214.793 727.291L210.7 716.505Z" fill="#F1F2F2"/>
<path d="M194.938 722.494L182.566 727.189L186.66 737.975L199.032 733.28L194.938 722.494Z" fill="#F1F2F2"/>
<path d="M155.355 749.856L183.798 739.061L179.704 728.275L151.262 739.07L155.355 749.856Z" fill="#F1F2F2"/>
<path d="M223.54 740.431L283.56 717.653L279.466 706.867L219.447 729.646L223.54 740.431Z" fill="#F1F2F2"/>
<path d="M207.756 746.42L220.128 741.725L216.035 730.939L203.663 735.635L207.756 746.42Z" fill="#F1F2F2"/>
<path d="M192.106 752.356L204.478 747.661L200.384 736.875L188.012 741.57L192.106 752.356Z" fill="#F1F2F2"/>
<path d="M176.247 758.378L188.619 753.682L184.526 742.896L172.154 747.592L176.247 758.378Z" fill="#F1F2F2"/>
<path d="M160.807 764.233L173.179 759.538L169.085 748.752L156.713 753.448L160.807 764.233Z" fill="#F1F2F2"/>
<path d="M334.015 698.509L346.387 693.813L342.293 683.028L329.921 687.723L334.015 698.509Z" fill="#F1F2F2"/>
<path d="M318.364 704.444L330.736 699.749L326.643 688.963L314.271 693.659L318.364 704.444Z" fill="#F1F2F2"/>
<path d="M302.5 710.468L314.872 705.772L310.779 694.987L298.407 699.682L302.5 710.468Z" fill="#F1F2F2"/>
<path d="M287.068 716.328L299.439 711.633L295.346 700.847L282.974 705.542L287.068 716.328Z" fill="#F1F2F2"/>
<path d="M325.213 615.224C322.592 612.912 318.813 612.091 315.322 613.417L130.907 683.402C127.916 684.534 125.821 686.994 125.012 689.85L325.215 615.231L325.213 615.224Z" fill="#C27387"/>
<path d="M133.257 154.136L93.1324 171.874C87.8891 174.192 85.5177 180.321 87.8356 185.565L122.616 264.24C124.933 269.483 131.063 271.854 136.306 269.537L176.43 251.799C181.674 249.481 184.045 243.351 181.727 238.108L146.947 159.433C144.629 154.19 138.5 151.818 133.257 154.136Z" fill="#F4DFE1"/>
<path d="M142.73 164.943L94.7588 186.15L125.144 254.883L173.115 233.676L142.73 164.943Z" fill="#F1F2F2"/>
<path d="M122.772 164.725L108.061 171.228C107.077 171.668 106.627 172.816 107.067 173.801C107.507 174.786 108.656 175.235 109.641 174.795L124.352 168.292C125.336 167.852 125.786 166.703 125.346 165.719C124.906 164.734 123.757 164.285 122.772 164.725Z" fill="#C27387"/>
<path d="M156.57 250.675C155.637 248.553 153.151 247.596 151.037 248.535C148.923 249.474 147.958 251.953 148.897 254.068C149.836 256.182 152.316 257.146 154.43 256.207C156.544 255.269 157.508 252.789 156.57 250.675Z" fill="#C27387"/>
<path opacity="0.4" d="M120.267 174.859L125.155 254.868L150.225 243.791L142.739 164.922L120.267 174.859Z" fill="white"/>
<path d="M296.534 114.678C303.709 98.2317 311.353 88.8585 318.101 80.5823C324.056 73.2827 329.193 66.9837 332.567 57.4496C333.99 53.4425 332.26 50.3451 330.424 47.0577C327.545 41.9018 324.282 36.0493 335.184 28.0292C344.212 21.3933 353.897 26.6158 362.443 31.2324C368.615 34.559 374.446 37.7119 379.263 36.2977C386.245 34.2483 390.463 30.8638 392.168 25.9485C397.685 10.013 376.206 -20.113 355.429 -49.2392C330.105 -84.7485 303.931 -121.468 323.343 -137.402L325.566 -134.691C308.68 -120.83 333.898 -85.4737 358.283 -51.2706C380.548 -20.0425 401.584 9.45305 395.477 27.0986C393.405 33.0866 388.281 37.3133 380.24 39.6657C374.036 41.4826 367.286 37.8434 360.761 34.3178C352.391 29.8008 344.484 25.5363 337.248 30.8532C328.832 37.0396 330.68 40.3398 333.465 45.3434C335.499 48.9855 337.801 53.1089 335.851 58.6112C332.083 69.2667 327.055 75.1167 320.795 82.7837C314.19 90.8789 306.702 100.059 299.724 116.06L296.511 114.652L296.534 114.678Z" fill="#EB7267" fill-opacity="0.5"/>
<path d="M301.861 113.106L301.059 112.751C287.992 106.967 272.711 112.871 266.927 125.938L257.342 147.592C251.559 160.659 257.463 175.941 270.53 181.724L271.332 182.079C284.399 187.863 299.68 181.959 305.464 168.892L315.048 147.237C320.832 134.171 314.928 118.889 301.861 113.106Z" fill="#EB7267" fill-opacity="0.53"/>
<path d="M298.878 109.897L298.076 109.542C285.009 103.758 269.727 109.662 263.944 122.729L254.359 144.383C248.575 157.45 254.48 172.732 267.546 178.515L268.348 178.87C281.415 184.654 296.697 178.75 302.48 165.683L312.065 144.028C317.849 130.962 311.944 115.68 298.878 109.897Z" fill="#F4DFE1"/>
<path d="M288.259 132.904C286.677 132.207 285.968 130.363 286.665 128.781L288.97 123.571C289.666 121.989 291.51 121.28 293.092 121.976C294.674 122.673 295.383 124.517 294.687 126.099L292.382 131.309C291.685 132.891 289.841 133.6 288.259 132.904Z" fill="#EBC3C7"/>
<path d="M292.387 131.315L294.692 126.105C295.369 124.565 294.701 122.779 293.207 122.048L288.32 132.93C289.891 133.589 291.698 132.879 292.387 131.315Z" fill="#E1A6AB"/>
<path d="M294.145 112.109C301.319 95.6628 308.963 86.2896 315.711 78.0134C321.666 70.7139 326.803 64.4149 330.177 54.8807C331.601 50.8737 329.87 47.7763 328.034 44.4889C325.155 39.333 321.892 33.4805 332.795 25.4603C341.823 18.8244 351.507 24.047 360.053 28.6635C366.225 31.9902 372.056 35.143 376.874 33.7289C383.855 31.6795 388.074 28.295 389.778 23.3796C395.296 7.44419 373.816 -22.6818 353.039 -51.808C327.715 -87.3174 301.541 -124.037 320.954 -139.971L323.176 -137.259C306.29 -123.399 331.508 -88.0426 355.893 -53.8395C378.158 -22.6114 399.195 6.8842 393.088 24.5297C391.015 30.5178 385.891 34.7445 377.85 37.0968C371.646 38.9138 364.896 35.2746 358.371 31.749C350.002 27.2319 342.095 22.9674 334.858 28.2843C326.442 34.4707 328.29 37.771 331.075 42.7746C333.109 46.4166 335.411 50.5401 333.461 56.0423C329.887 66.1464 324.562 72.6682 318.405 80.2149C311.8 88.3101 304.312 97.4903 297.334 113.491L294.121 112.083L294.145 112.109Z" fill="#F6E3E5"/>
<path d="M254.691 119.364C258.241 112.245 263.547 106.279 269.939 101.917" stroke="#EF889F" stroke-miterlimit="10"/>
<path d="M274.687 99.1897C275.742 101.13 278.171 101.847 280.112 100.791C282.052 99.7356 282.769 97.3066 281.714 95.3661C280.658 93.4256 278.229 92.7085 276.288 93.7644C274.348 94.8202 273.631 97.2492 274.687 99.1897Z" stroke="#EF889F" stroke-miterlimit="10"/>
<path d="M344.67 35V44.34" stroke="#EF889F" stroke-miterlimit="10"/>
<path d="M340 39.6699H349.34" stroke="#EF889F" stroke-miterlimit="10"/>
<path d="M341.37 36.3701L347.97 42.9701" stroke="#EF889F" stroke-miterlimit="10"/>
<path d="M341.37 42.9701L347.97 36.3701" stroke="#EF889F" stroke-miterlimit="10"/>
<path d="M195.815 249.344L201.628 256.655" stroke="#EF889F" stroke-miterlimit="10"/>
<path d="M195.066 255.905L202.377 250.093" stroke="#EF889F" stroke-miterlimit="10"/>
<path d="M194.085 252.47L203.359 253.528" stroke="#EF889F" stroke-miterlimit="10"/>
<path d="M198.192 257.636L199.251 248.362" stroke="#EF889F" stroke-miterlimit="10"/>
<path d="M82.5762 149.814L85.0469 156.237" stroke="#EF889F" stroke-miterlimit="10"/>
<path d="M80.607 154.263L87.0299 151.792" stroke="#EF889F" stroke-miterlimit="10"/>
<path d="M79.7827 194.166C74.6718 188.263 73.1167 179.712 76.5013 172.111C78.8315 166.867 83.0678 163.069 88.0315 161.153" stroke="#EF889F" stroke-miterlimit="10"/>
<path d="M325.443 602.235C332.613 604.107 338.342 608.716 341.812 614.638" stroke="#EF889F" stroke-miterlimit="10"/>
<path d="M332.338 590.667C333.806 589.878 335.628 590.426 336.417 591.893C337.206 593.36 336.658 595.182 335.191 595.971C333.724 596.76 331.902 596.213 331.113 594.745C330.324 593.278 330.871 591.456 332.338 590.667Z" stroke="#EF889F" stroke-miterlimit="10"/>
<path d="M124.035 636.6C123.01 635.166 122.002 633.731 120.947 632.328C121.09 632.045 121.225 631.762 121.355 631.466C121.63 630.811 121.834 630.15 121.976 629.492C125.547 626.077 127.798 627.032 127.798 627.032L129.002 624.145C112.373 606.473 95.2061 610.025 95.2061 610.025C90.6642 604.552 83.1591 604.993 83.1591 604.993C81.2219 602.791 79.2142 600.94 77.2001 599.38C75.3783 597.659 73.2198 596.246 70.9333 595.293C70.6104 595.155 70.2794 595.035 69.9483 594.916C59.6229 590.026 50.6992 591.439 50.6992 591.439L48.994 595.528C50.6697 596.086 51.0856 597.5 51.058 598.851C50.4614 599.632 49.9476 600.499 49.5435 601.467C49.3174 602.014 49.1356 602.568 48.9983 603.129C47.7702 603.318 46.5425 603.515 45.3059 603.712L39.7882 604.669L41.5313 609.98C42.2843 609.598 43.1215 609.227 43.9379 608.886C44.7582 608.533 45.5883 608.206 46.4191 607.896C47.1755 607.602 47.9375 607.339 48.704 607.08C49.2523 613.333 54.2917 619.471 60.2233 621.948C68.7104 625.492 78.4904 622.246 81.578 614.857C82.1074 613.588 82.3936 612.306 82.4684 611.033L87.5999 613.126L91.3989 614.75C90.5441 615.7 89.8275 616.804 89.294 618.077C86.0326 625.883 92.2487 635.329 99.9825 638.558C106.743 641.378 114.314 639.893 118.684 635.442C119.237 636.532 119.778 637.628 120.266 638.743C120.632 639.558 120.981 640.374 121.309 641.204C121.64 642.021 121.96 642.878 122.224 643.684L127.224 641.194L124.022 636.596L124.035 636.6ZM111.034 621.498C110.376 621.033 109.667 620.606 108.861 620.302L103.812 618.294C100.694 617.045 97.5679 615.824 94.4531 614.553C98.5755 611.607 104.908 611.533 109.974 613.65C114.969 615.735 119.309 620.197 120.203 625.122C117.136 623.938 114.081 622.731 111.034 621.507L111.034 621.498ZM120.367 627.101C120.346 628.271 120.122 629.448 119.65 630.618C118.907 629.649 118.152 628.694 117.37 627.749C116.436 626.62 115.462 625.515 114.425 624.452C116.412 625.324 118.392 626.206 120.363 627.096L120.367 627.101ZM93.0401 613.253C92.8386 613.406 92.6374 613.569 92.4497 613.735L88.1023 611.96L82.4913 609.559C82.4913 609.559 82.4867 609.554 82.4822 609.55C82.4632 609.286 82.4355 609.023 82.3989 608.759C86.8057 607.479 91.0403 609.88 93.0489 613.253L93.0401 613.253ZM51.2831 602.195C51.7845 601.002 52.4734 599.983 53.3097 599.126C55.7854 600.068 58.2443 601.028 60.7037 602.006C59.2215 602.01 57.747 602.097 56.2871 602.224C54.5284 602.379 52.7844 602.574 51.0473 602.835C51.1185 602.62 51.1985 602.406 51.2919 602.195L51.2831 602.195ZM72.5445 605.223L67.5684 603.045C66.7829 602.691 65.9854 602.488 65.1902 602.346C61.7495 600.859 58.3208 599.34 54.9041 597.79C59.0323 594.994 65.2335 594.95 70.2146 597.032C75.2764 599.145 79.6592 603.689 80.4771 608.687C77.8304 607.544 75.1915 606.375 72.5491 605.228L72.5445 605.223ZM60.9596 620.208C55.4583 617.908 50.7826 612.167 50.5431 606.489C50.8569 606.389 51.175 606.284 51.4934 606.188C54.9062 605.219 58.4041 604.397 61.8787 604.233C62.7464 604.196 63.6066 604.194 64.448 604.276C65.2848 604.354 66.1109 604.499 66.8279 604.789L71.8585 606.781C74.7797 607.948 77.7002 609.098 80.6129 610.275C80.6177 611.554 80.3805 612.847 79.8469 614.12C77.1998 620.455 68.3748 623.295 60.9592 620.199L60.9596 620.208ZM100.719 636.818C93.8055 633.933 88.2017 625.615 91.0424 618.805C91.5756 617.522 92.3327 616.439 93.2557 615.543C96.5789 616.956 99.878 618.431 103.189 619.875L108.143 622.05C108.852 622.358 109.537 622.848 110.179 623.384C110.831 623.919 111.432 624.536 112.017 625.179C114.275 627.687 116.095 630.639 117.763 633.646C114.007 637.866 106.875 639.392 100.719 636.818Z" fill="#EB7267" fill-opacity="0.5"/>
<path d="M93.0216 607.933C88.4797 602.46 80.9746 602.902 80.9746 602.902C66.5236 586.474 48.5143 589.339 48.5143 589.339L46.8091 593.428C50.3973 594.618 48.2242 599.735 48.2242 599.735C51.1703 592.683 60.6867 590.849 68.3893 594.066C74.155 596.475 78.6263 601.602 79.2694 606.991C84.3775 604.898 89.4408 607.973 91.3164 612.022C95.5963 608.695 102.383 608.267 108.153 610.68C115.856 613.897 121.238 621.958 118.292 629.011C122.712 623.715 125.61 624.945 125.61 624.945L126.814 622.058C110.184 604.386 93.0173 607.938 93.0173 607.938L93.0216 607.933Z" fill="#654659"/>
<path d="M37.6032 602.568L43.1209 601.611C44.945 601.321 46.7639 601.009 48.5901 600.771C50.4104 600.494 52.2467 600.291 54.089 600.128C55.9313 599.965 57.7893 599.867 59.6706 599.919C60.6112 599.94 61.5579 600.01 62.5123 600.163C63.4664 600.307 64.4319 600.522 65.3792 600.949L70.3552 603.127C73.6663 604.571 76.9654 606.046 80.2886 607.459L90.2546 611.718C93.5902 613.108 96.9137 614.529 100.262 615.897C106.945 618.654 113.644 621.358 120.404 623.931L119.681 625.675C113.095 622.676 106.455 619.806 99.8006 616.991C96.4728 615.574 93.1249 614.207 89.7936 612.812L79.7456 608.715C76.4019 607.343 73.0253 606.034 69.6692 604.684L64.6386 602.693C63.9174 602.408 63.0913 602.263 62.2587 602.18C61.4215 602.093 60.5571 602.099 59.6894 602.137C56.2103 602.297 52.7169 603.123 49.3041 604.092C47.6036 604.616 45.9037 605.158 44.2386 605.799C43.4036 606.114 42.5735 606.441 41.7574 606.79C40.9411 607.13 40.1084 607.506 39.3508 607.884L37.6077 602.572L37.6032 602.568Z" fill="#654659"/>
<path d="M120.044 641.588C119.784 640.786 119.465 639.929 119.129 639.108C118.802 638.278 118.453 637.462 118.086 636.647C117.375 635.011 116.56 633.423 115.736 631.844C114.024 628.738 112.156 625.673 109.829 623.084C109.244 622.44 108.642 621.823 107.991 621.288C107.344 620.748 106.659 620.267 105.954 619.954L101 617.779C97.6805 616.336 94.3814 614.861 91.0537 613.444L81.0785 609.176C77.743 607.786 74.4195 606.365 71.0715 604.997C64.3881 602.24 57.6844 599.532 50.9196 596.954L51.6517 595.219C58.2297 598.219 64.8644 601.084 71.5192 603.899C74.847 605.316 78.1861 606.684 81.5262 608.078L91.5608 612.172C94.9045 613.544 98.2723 614.853 101.628 616.193L106.677 618.201C107.649 618.575 108.476 619.112 109.248 619.682C110.025 620.257 110.741 620.878 111.419 621.532C112.779 622.834 114.015 624.225 115.194 625.649C116.374 627.073 117.519 628.524 118.604 630.014C119.724 631.484 120.774 632.992 121.851 634.5L125.053 639.098L120.053 641.588L120.044 641.588Z" fill="#654659"/>
<path opacity="0.5" d="M118.292 629.002C115.346 636.054 105.873 638.804 98.1706 635.587C90.468 632.37 85.0419 623.393 87.988 616.34C90.9341 609.288 100.451 607.454 108.153 610.671C115.856 613.888 121.238 621.949 118.292 629.002Z" fill="#E1A6AB"/>
<path opacity="0.5" d="M78.532 612.392C75.5859 619.445 66.1133 622.194 58.4108 618.978C50.7083 615.761 45.2822 606.783 48.2282 599.731C51.1743 592.678 60.6908 590.845 68.3933 594.062C76.0959 597.278 81.4781 605.34 78.532 612.392Z" fill="#E1A6AB"/>
<path d="M97.8066 636.457C90.0727 633.228 83.8566 623.782 87.118 615.977C90.4356 608.028 100.81 606.58 108.517 609.801C116.224 613.023 122.483 621.412 119.166 629.361C116.078 636.75 106.298 639.997 97.8108 636.452L97.8066 636.457ZM107.789 611.541C100.921 608.672 91.7311 609.831 88.8576 616.704C86.0124 623.51 91.6207 631.832 98.5341 634.717C105.95 637.813 114.775 634.973 117.422 628.638C120.295 621.765 114.658 614.41 107.789 611.541Z" fill="#654659"/>
<path d="M58.043 619.852C50.3092 616.623 44.0931 607.177 47.3544 599.372C50.6721 591.423 61.046 589.975 68.7531 593.196C76.4602 596.417 82.7197 604.807 79.3978 612.761C76.3102 620.149 66.5347 623.4 58.043 619.852ZM68.0256 594.936C61.1569 592.067 51.9676 593.226 49.094 600.099C46.2488 606.905 51.8572 615.227 58.7705 618.112C66.1861 621.208 75.0111 618.368 77.6582 612.033C80.5317 605.16 74.8942 597.805 68.0256 594.936Z" fill="#654659"/>
<path opacity="0.53" d="M65.3686 594.973L62.2012 595.892L68.2741 616.818L71.4415 615.899L65.3686 594.973Z" fill="white"/>
<path opacity="0.53" d="M58.9899 596.107L57.1816 596.631L63.2546 617.558L65.0628 617.033L58.9899 596.107Z" fill="white"/>
<path d="M153.51 539.228C152.412 537.688 150.268 537.327 148.728 538.424L139.993 544.64C134.65 537.57 126.171 533 116.626 533C100.454 533 87.3486 546.111 87.3486 562.277C87.3486 578.444 100.46 591.555 116.626 591.555C132.792 591.555 145.904 578.444 145.904 562.277C145.904 558.1 145.025 554.135 143.447 550.544C143.597 550.469 143.74 550.382 143.877 550.288L152.699 544.01C154.239 542.913 154.601 540.768 153.504 539.228H153.51Z" fill="#EB7267" fill-opacity="0.5"/>
<path d="M149.146 539.228C148.048 537.688 145.904 537.327 144.364 538.424L135.629 544.64C130.286 537.57 121.807 533 112.262 533C96.0894 533 82.9844 546.111 82.9844 562.277C82.9844 578.444 96.0957 591.555 112.262 591.555C128.428 591.555 141.539 578.444 141.539 562.277C141.539 558.1 140.66 554.135 139.083 550.544C139.233 550.469 139.376 550.382 139.513 550.288L148.335 544.01C149.875 542.913 150.237 540.768 149.139 539.228H149.146Z" fill="#F6E4E6"/>
<path d="M112.256 585.327C99.5498 585.327 89.2129 574.99 89.2129 562.284C89.2129 549.578 99.5498 539.241 112.256 539.241C124.962 539.241 135.299 549.578 135.299 562.284C135.299 574.99 124.962 585.327 112.256 585.327Z" fill="#785C6C"/>
<path d="M101.906 560.825C101.906 551.261 107.767 543.037 116.083 539.559C114.837 539.353 113.565 539.234 112.262 539.234C99.5557 539.234 89.2188 549.571 89.2188 562.277C89.2188 574.983 99.5557 585.32 112.262 585.32C115.404 585.32 118.403 584.684 121.133 583.543C110.242 581.717 101.912 572.228 101.912 560.818L101.906 560.825Z" fill="#59384B"/>
<path d="M120.841 558.749C123.554 558.749 125.753 557.4 125.753 555.737C125.753 554.074 123.554 552.726 120.841 552.726C118.127 552.726 115.928 554.074 115.928 555.737C115.928 557.4 118.127 558.749 120.841 558.749Z" fill="#D3CACF"/>
<path d="M52.6445 566.925L51.6035 571.088" stroke="#EF889F" stroke-miterlimit="10"/>
<path d="M50.0458 568.489L54.208 569.53" stroke="#EF889F" stroke-miterlimit="10"/>
<path d="M35.3276 588.552C34.8354 583.709 37.1059 578.789 41.5564 576.124C44.6243 574.284 48.1468 573.864 51.3658 574.665" stroke="#EF889F" stroke-miterlimit="10"/>
<path d="M142.965 590C138.913 594.449 133.474 596.795 127.965 597" stroke="#EF889F" stroke-miterlimit="10"/>
<path d="M147.965 599.5C147.965 600.883 147.071 602 145.965 602C144.858 602 143.965 600.883 143.965 599.5C143.965 598.117 144.858 597 145.965 597C147.071 597 147.965 598.117 147.965 599.5Z" stroke="#EF889F" stroke-miterlimit="10"/>
</g>
<defs>
<clipPath id="clip0_809_2">
<rect width="390" height="798" fill="white"/>
</clipPath>
</defs>
</svg>
