<svg width="506" height="245" viewBox="0 0 506 245" fill="none" xmlns="http://www.w3.org/2000/svg">
<path d="M66.7147 165.115C66.7147 170.579 66.9521 179.132 66.9521 184.121H49.9767L50.0954 175.806C44.7534 181.745 38.5805 185.546 30.3896 185.546C15.6696 185.546 4.27344 172.836 4.27344 154.78C4.27344 135.18 17.9251 121.401 34.7818 121.401C40.9547 121.401 45.9405 123.301 49.9767 126.509V96.5742C54.9625 96.5742 59.5921 98.8312 62.6786 102.276C65.4089 105.365 66.7147 109.285 66.7147 113.442V157.869V165.115ZM49.9767 173.074V134.943C49.858 134.824 49.858 134.705 49.7392 134.586C47.7212 127.934 43.0915 123.301 36.9186 123.301C27.1844 123.301 21.9612 134.586 21.9612 153.474C21.9612 173.549 27.5405 180.557 36.325 180.557C41.0734 180.557 45.347 178.419 49.9767 173.074ZM136.563 143.377C142.38 162.026 132.527 178.538 114.602 184.24C96.7956 189.704 80.1763 182.339 74.3595 163.571C68.5427 144.921 78.2769 128.409 96.3208 122.708C114.009 117.243 130.747 124.608 136.563 143.377ZM114.602 182.458C124.218 179.488 125.167 166.659 119.825 149.435C114.365 131.854 105.343 121.638 96.0834 124.489C86.5866 127.459 85.6369 140.288 91.0975 157.75C96.5582 175.212 105.461 185.428 114.602 182.458ZM202.576 139.1C202.576 139.219 202.576 139.338 202.576 139.457V184.121H188.687L185.72 175.331C185.72 175.449 185.72 175.449 185.72 175.449C180.853 181.032 174.561 185.546 165.302 185.546C161.978 185.546 159.01 185.071 156.517 184.121C149.276 181.389 145.24 174.737 145.24 163.808V122.826C145.715 122.826 146.071 122.826 146.546 122.826C150.7 123.183 154.38 124.965 157.111 127.697C159.96 130.548 161.74 134.349 161.978 138.625C161.978 138.744 161.978 138.981 161.978 139.1C162.096 139.219 162.096 139.338 162.096 139.457V143.971V165.234C162.096 169.51 162.096 180.32 172.662 180.32C176.935 180.32 181.327 177.706 185.72 172.955V172.836L185.838 122.826C186.195 122.826 186.669 122.826 187.026 122.826C191.18 123.183 194.86 124.965 197.591 127.697C200.44 130.548 202.339 134.349 202.576 138.625C202.576 138.744 202.576 138.981 202.576 139.1ZM238.434 146.109C244.963 148.722 256.834 153.117 256.834 165.828C256.834 176.4 248.406 185.546 231.549 185.546C222.527 185.546 212.081 182.933 208.638 180.914L212.081 168.916C219.915 170.104 223.595 183.883 233.211 183.883C241.758 183.883 246.506 179.845 246.506 173.905C246.506 167.015 239.859 164.283 232.617 161.551L227.869 159.769C221.103 157.156 209.469 152.523 209.469 140.526C209.469 130.191 217.779 121.401 233.448 121.401C242.47 121.401 250.661 124.252 253.629 125.796L250.068 138.269C245.557 136.249 240.571 123.064 231.668 123.064C223.952 123.064 219.797 127.103 219.797 132.211C219.797 139.1 226.919 141.714 233.805 144.327L238.434 146.109ZM301.058 177.588L302.008 178.894C296.547 182.814 291.086 185.546 283.489 185.546C268.65 185.546 267.107 175.212 267.107 169.391V125.321H259.628V122.945L266.87 122.826H267.107V106.434C267.582 106.434 267.938 106.434 268.413 106.434C272.568 106.79 276.129 108.572 278.978 111.304C281.708 114.155 283.608 117.956 283.726 122.232C283.845 122.47 283.845 122.589 283.845 122.708V122.826V123.064H300.227V133.992H300.108C293.104 128.172 290.255 125.202 285.032 125.202H283.845V169.866C283.845 172.717 283.845 180.438 291.799 180.438C294.292 180.438 297.378 179.607 301.058 177.588ZM367.466 180.914C368.415 180.914 369.009 180.795 369.721 180.676V181.389C368.178 182.458 363.192 185.071 356.901 185.071C350.253 184.952 347.404 181.983 346.098 179.132C341.468 182.458 334.821 185.546 325.917 185.546C311.435 185.546 302.175 177.944 302.175 166.421C302.175 146.584 333.515 143.139 333.515 133.28C333.515 131.379 332.446 129.835 330.428 129.241C330.428 129.241 330.31 129.122 330.191 129.122C329.716 129.003 329.36 128.885 328.885 128.885C327.935 128.766 326.511 128.647 324.968 128.885C323.068 129.122 320.931 129.835 318.795 131.379L316.421 128.291C321.525 123.301 328.766 119.857 338.382 121.163C351.796 122.945 361.768 134.23 362.242 150.385L362.005 172.242C362.005 177.706 362.005 180.914 367.466 180.914ZM335.058 179.132C339.094 179.132 342.537 177.944 345.267 176.4V176.281L345.386 147.772C345.267 132.923 344.673 123.777 336.839 122.708C333.633 122.232 331.615 124.252 329.716 127.34C333.871 127.815 337.076 130.191 337.076 134.468C337.076 144.327 320.219 150.148 320.219 164.758C320.219 173.43 325.917 179.132 335.058 179.132ZM386.907 101.445C389.875 104.414 391.774 108.453 391.893 112.848V184.121H375.036V96.5742C379.666 96.5742 383.821 98.4748 386.907 101.445ZM420.471 161.67C420.352 161.67 420.352 161.789 420.352 161.908C419.996 162.977 419.878 164.402 420.352 166.303C420.471 166.778 420.59 167.372 420.827 167.966C420.827 168.203 420.946 168.322 420.946 168.56C420.946 168.56 421.065 168.56 421.065 168.678C424.27 175.449 429.612 178.775 436.378 178.775C442.432 178.775 449.08 175.806 454.422 168.56L455.847 169.272C449.317 179.251 440.77 185.546 428.899 185.546C412.517 185.546 399.697 173.549 399.697 154.424C399.697 137.318 410.025 125.44 423.914 122.351C426.407 121.757 429.018 121.401 431.63 121.401C431.867 121.401 432.223 121.401 432.461 121.52C435.903 121.282 439.821 121.876 443.976 123.539C444.925 123.895 445.875 124.371 446.825 124.846C457.627 130.548 461.663 139.932 457.152 148.603C450.742 160.838 432.342 156.206 424.151 158.582C422.964 158.938 422.014 159.413 421.302 160.126C421.183 160.126 421.183 160.245 421.065 160.363C420.827 160.72 420.59 161.195 420.471 161.67ZM418.809 161.908C418.809 161.314 418.809 156.562 424.507 153.949C424.745 153.83 424.863 153.83 425.101 153.711C425.338 153.592 425.457 153.592 425.694 153.474C431.63 151.217 439.227 149.672 442.907 142.664C443.738 141.001 444.332 139.338 444.45 137.794C445.994 125.558 437.209 123.539 434.241 123.183C434.123 123.183 434.004 123.183 434.004 123.183C433.767 123.183 433.648 123.183 433.529 123.183C433.292 123.183 433.173 123.183 433.173 123.183C431.511 123.183 429.849 123.42 428.425 124.014C421.658 126.984 417.622 136.249 417.622 150.266C417.622 153.474 417.859 156.325 418.216 159.057C418.334 159.532 418.453 160.007 418.453 160.482C418.572 160.957 418.69 161.432 418.809 161.908ZM501.974 177.588L502.924 178.894C497.463 182.814 492.003 185.546 484.405 185.546C469.566 185.546 468.023 175.212 468.023 169.391V125.321H460.544V122.945L467.786 122.826H468.023V106.434C468.498 106.434 468.854 106.434 469.329 106.434C473.484 106.79 477.045 108.572 479.894 111.304C482.624 114.155 484.524 117.956 484.643 122.232C484.761 122.47 484.761 122.589 484.761 122.708V122.826V123.064H501.143V133.992H501.024C494.021 128.172 491.172 125.202 485.948 125.202H484.761V169.866C484.761 172.717 484.761 180.438 492.715 180.438C495.208 180.438 498.294 179.607 501.974 177.588Z" fill="#FFFEF9"/>
<path d="M130.224 76.4997L131.649 77.3312C125.12 87.1906 116.573 93.4864 104.702 93.4864C88.3199 93.4864 75.4993 81.4888 75.4993 62.3639C75.4993 42.17 89.8631 29.3409 107.432 29.3409C118.353 29.3409 126.07 33.8548 130.937 39.4379L121.44 47.753C116.692 40.0318 115.979 31.1227 108.975 31.1227C99.3599 31.1227 93.4244 41.2197 93.4244 58.2064C93.4244 77.45 101.022 86.7154 112.181 86.7154C118.353 86.7154 124.882 83.7458 130.224 76.4997ZM175.355 29.3409C188.176 29.3409 195.536 36.2306 195.536 51.1979V92.0609H178.679V49.5348C178.679 45.3773 178.56 34.5676 168.114 34.5676C163.721 34.5676 159.685 36.3494 155.174 40.8633C155.056 40.9821 154.937 41.1009 154.937 41.1009V92.0609H138.081V4.51424H139.98C147.34 5.34575 153.394 10.81 154.818 17.9373C154.818 18.1748 154.937 18.7688 154.937 19.1251V38.8439C160.279 33.2609 166.333 29.3409 175.355 29.3409ZM217.454 9.38454C220.422 12.3542 222.321 16.393 222.44 20.7882V92.0609H205.583V4.51424C210.212 4.51424 214.367 6.41485 217.454 9.38454ZM293.872 51.3167C299.688 69.9664 289.836 86.4779 271.91 92.1797C254.104 97.6439 237.485 90.2791 231.668 71.5106C225.851 52.8609 235.585 36.3494 253.629 30.6476C271.317 25.1833 288.055 32.5482 293.872 51.3167ZM271.91 90.3979C281.526 87.4282 282.476 74.5991 277.134 57.3748C271.673 39.7942 262.651 29.5785 253.392 32.4294C243.895 35.3991 242.945 48.2282 248.406 65.69C253.866 83.1518 262.77 93.3676 271.91 90.3979ZM343.623 2.73242L321.543 24.827L320.712 24.233L327.834 2.73242H343.623ZM320.356 70.5603C320.237 70.5603 320.237 70.6791 320.237 70.7979C319.881 71.867 319.762 73.1736 320.237 75.0742C320.356 75.5494 320.474 76.0245 320.593 76.6185C320.712 76.8561 320.831 76.9748 320.831 77.2124C323.917 83.8645 329.14 87.0718 335.551 87.0718C341.486 87.0718 347.896 84.2209 353.001 77.2124L354.307 77.9251C348.015 87.4282 339.824 93.4864 328.428 93.4864C312.758 93.4864 300.413 81.9639 300.413 63.5518C300.413 47.1591 310.384 35.8742 323.68 32.7858C326.054 32.1918 328.547 31.9542 331.158 31.9542C331.396 31.9542 331.633 31.9542 331.871 31.9542C335.194 31.8355 338.874 32.3106 342.911 33.9736C343.86 34.33 344.81 34.6864 345.641 35.1615C356.087 40.7445 359.886 49.7724 355.613 57.9688C349.321 69.8476 331.752 65.3336 323.917 67.5906C322.73 67.947 321.899 68.4221 321.187 69.0161C321.068 69.1348 321.068 69.2536 320.949 69.3724C320.712 69.7288 320.474 70.0851 320.356 70.5603ZM318.694 70.7979C318.694 70.2039 318.813 65.69 324.273 63.1954C324.392 63.0767 324.629 63.0767 324.748 62.9579C324.985 62.8391 325.223 62.8391 325.342 62.7203C331.04 60.5821 338.4 59.1567 341.961 52.267C342.792 50.7227 343.267 49.1785 343.385 47.6342C344.81 35.8742 336.382 33.9736 333.533 33.6173C333.414 33.6173 333.295 33.6173 333.295 33.6173C333.176 33.6173 333.058 33.6173 332.82 33.6173C332.702 33.6173 332.583 33.6173 332.583 33.6173C330.921 33.6173 329.378 33.8548 327.953 34.4488C321.543 37.1809 317.625 46.2088 317.625 59.6318C317.625 62.7203 317.863 65.4524 318.219 68.0658C318.338 68.5409 318.338 69.0161 318.456 69.4912C318.575 69.9664 318.575 70.3227 318.694 70.7979Z" fill="#FFFEF9"/>
<path d="M118.52 221.2H125.6C127.376 221.2 128.952 221.552 130.328 222.256C131.704 222.96 132.768 223.952 133.52 225.232C134.288 226.496 134.672 227.952 134.672 229.6C134.672 231.248 134.288 232.712 133.52 233.992C132.768 235.256 131.704 236.24 130.328 236.944C128.952 237.648 127.376 238 125.6 238H118.52V221.2ZM125.456 235.912C126.816 235.912 128.008 235.648 129.032 235.12C130.072 234.592 130.872 233.856 131.432 232.912C131.992 231.952 132.272 230.848 132.272 229.6C132.272 228.352 131.992 227.256 131.432 226.312C130.872 225.352 130.072 224.608 129.032 224.08C128.008 223.552 126.816 223.288 125.456 223.288H120.92V235.912H125.456ZM149.34 235.912V238H137.148V221.2H149.004V223.288H139.548V228.448H147.972V230.488H139.548V235.912H149.34ZM144.564 216.712H147.492L143.46 219.832H141.3L144.564 216.712ZM166.384 221.2L159.016 238H156.64L149.248 221.2H151.84L157.888 235L163.984 221.2H166.384ZM179.518 235.912V238H167.326V221.2H179.182V223.288H169.726V228.448H178.15V230.488H169.726V235.912H179.518ZM182.204 221.2H184.604V235.912H193.7V238H182.204V221.2ZM202.534 238.192C200.838 238.192 199.31 237.824 197.95 237.088C196.59 236.336 195.518 235.304 194.734 233.992C193.966 232.68 193.582 231.216 193.582 229.6C193.582 227.984 193.966 226.52 194.734 225.208C195.518 223.896 196.59 222.872 197.95 222.136C199.31 221.384 200.838 221.008 202.534 221.008C204.214 221.008 205.734 221.384 207.094 222.136C208.454 222.872 209.518 223.896 210.286 225.208C211.054 226.504 211.438 227.968 211.438 229.6C211.438 231.232 211.054 232.704 210.286 234.016C209.518 235.312 208.454 236.336 207.094 237.088C205.734 237.824 204.214 238.192 202.534 238.192ZM202.534 236.056C203.766 236.056 204.87 235.776 205.846 235.216C206.838 234.656 207.614 233.888 208.174 232.912C208.75 231.92 209.038 230.816 209.038 229.6C209.038 228.384 208.75 227.288 208.174 226.312C207.614 225.32 206.838 224.544 205.846 223.984C204.87 223.424 203.766 223.144 202.534 223.144C201.302 223.144 200.182 223.424 199.174 223.984C198.182 224.544 197.398 225.32 196.822 226.312C196.262 227.288 195.982 228.384 195.982 229.6C195.982 230.816 196.262 231.92 196.822 232.912C197.398 233.888 198.182 234.656 199.174 235.216C200.182 235.776 201.302 236.056 202.534 236.056ZM220.458 221.2C222.634 221.2 224.346 221.72 225.594 222.76C226.842 223.8 227.466 225.232 227.466 227.056C227.466 228.88 226.842 230.312 225.594 231.352C224.346 232.392 222.634 232.912 220.458 232.912H216.306V238H213.906V221.2H220.458ZM220.386 230.824C221.906 230.824 223.066 230.504 223.866 229.864C224.666 229.208 225.066 228.272 225.066 227.056C225.066 225.84 224.666 224.912 223.866 224.272C223.066 223.616 221.906 223.288 220.386 223.288H216.306V230.824H220.386ZM236.344 221.2C238.52 221.2 240.232 221.72 241.48 222.76C242.728 223.8 243.352 225.232 243.352 227.056C243.352 228.88 242.728 230.312 241.48 231.352C240.232 232.392 238.52 232.912 236.344 232.912H232.192V238H229.792V221.2H236.344ZM236.272 230.824C237.792 230.824 238.952 230.504 239.752 229.864C240.552 229.208 240.952 228.272 240.952 227.056C240.952 225.84 240.552 224.912 239.752 224.272C238.952 223.616 237.792 223.288 236.272 223.288H232.192V230.824H236.272ZM257.87 235.912V238H245.678V221.2H257.534V223.288H248.078V228.448H256.502V230.488H248.078V235.912H257.87ZM267.516 238.192C265.276 238.192 263.532 237.552 262.284 236.272C261.036 234.992 260.412 233.152 260.412 230.752V221.2H262.812V230.656C262.812 234.256 264.388 236.056 267.54 236.056C269.076 236.056 270.252 235.616 271.068 234.736C271.884 233.84 272.292 232.48 272.292 230.656V221.2H274.62V230.752C274.62 233.168 273.996 235.016 272.748 236.296C271.5 237.56 269.756 238.192 267.516 238.192ZM283.236 238.192C281.972 238.192 280.748 238 279.564 237.616C278.396 237.216 277.476 236.704 276.804 236.08L277.692 234.208C278.332 234.784 279.148 235.256 280.14 235.624C281.148 235.976 282.18 236.152 283.236 236.152C284.628 236.152 285.668 235.92 286.356 235.456C287.044 234.976 287.388 234.344 287.388 233.56C287.388 232.984 287.196 232.52 286.812 232.168C286.444 231.8 285.98 231.52 285.42 231.328C284.876 231.136 284.1 230.92 283.092 230.68C281.828 230.376 280.804 230.072 280.02 229.768C279.252 229.464 278.588 229 278.028 228.376C277.484 227.736 277.212 226.88 277.212 225.808C277.212 224.912 277.444 224.104 277.908 223.384C278.388 222.664 279.108 222.088 280.068 221.656C281.028 221.224 282.22 221.008 283.644 221.008C284.636 221.008 285.612 221.136 286.572 221.392C287.532 221.648 288.356 222.016 289.044 222.496L288.252 224.416C287.548 223.968 286.796 223.632 285.996 223.408C285.196 223.168 284.412 223.048 283.644 223.048C282.284 223.048 281.26 223.296 280.572 223.792C279.9 224.288 279.564 224.928 279.564 225.712C279.564 226.288 279.756 226.76 280.14 227.128C280.524 227.48 280.996 227.76 281.556 227.968C282.132 228.16 282.908 228.368 283.884 228.592C285.148 228.896 286.164 229.2 286.932 229.504C287.7 229.808 288.356 230.272 288.9 230.896C289.46 231.52 289.74 232.36 289.74 233.416C289.74 234.296 289.5 235.104 289.02 235.84C288.54 236.56 287.812 237.136 286.836 237.568C285.86 237.984 284.66 238.192 283.236 238.192ZM304.239 235.912V238H292.047V221.2H303.903V223.288H294.447V228.448H302.871V230.488H294.447V235.912H304.239ZM335.906 221.2L330.29 238H327.77L323.186 224.584L318.602 238H316.034L310.418 221.2H312.89L317.426 234.856L322.154 221.2H324.362L328.994 234.928L333.626 221.2H335.906ZM349.834 235.912V238H337.642V221.2H349.498V223.288H340.042V228.448H348.466V230.488H340.042V235.912H349.834ZM363.824 229.288C364.8 229.56 365.568 230.056 366.128 230.776C366.688 231.48 366.968 232.376 366.968 233.464C366.968 234.92 366.416 236.04 365.312 236.824C364.224 237.608 362.632 238 360.536 238H352.52V221.2H360.056C361.976 221.2 363.456 221.584 364.496 222.352C365.552 223.12 366.08 224.184 366.08 225.544C366.08 226.424 365.872 227.184 365.456 227.824C365.056 228.464 364.512 228.952 363.824 229.288ZM354.92 223.144V228.52H359.84C361.072 228.52 362.016 228.296 362.672 227.848C363.344 227.384 363.68 226.712 363.68 225.832C363.68 224.952 363.344 224.288 362.672 223.84C362.016 223.376 361.072 223.144 359.84 223.144H354.92ZM360.44 236.056C361.8 236.056 362.824 235.832 363.512 235.384C364.2 234.936 364.544 234.232 364.544 233.272C364.544 231.4 363.176 230.464 360.44 230.464H354.92V236.056H360.44Z" fill="white"/>
<path fill-rule="evenodd" clip-rule="evenodd" d="M289.903 61.1818C289.903 78.4031 277.613 92.3636 262.452 92.3636C247.291 92.3636 235 78.4031 235 61.1818C235 43.9606 247.291 30 262.452 30C277.613 30 289.903 43.9606 289.903 61.1818ZM269.693 63.5506C269.003 63.966 268.77 64.8572 269.168 65.558L277.293 79.8381C277.7 80.5545 277.446 81.4659 276.728 81.8685L269.872 85.7071C269.163 86.1043 268.267 85.8566 267.862 85.1515L259.867 71.2376C259.468 70.5449 258.594 70.2916 257.887 70.6643L252.673 73.4157C251.722 73.9177 250.569 73.2718 250.5 72.1978L248.557 42.0328C248.475 40.7833 249.882 40.0011 250.9 40.7294L274.975 57.9528C275.845 58.5742 275.793 59.8829 274.878 60.4334L269.693 63.5506Z" fill="#FFFEF9"/>
</svg>
